<?xml version="1.0" encoding="UTF-8"?>
<!DOCTYPE svg PUBLIC "-//W3C//DTD SVG 1.1//EN" "http://www.w3.org/Graphics/SVG/1.1/DTD/svg11.dtd">
<!-- Creator: CorelDRAW -->
<svg xmlns="http://www.w3.org/2000/svg" xml:space="preserve" width="18.3333in" height="13.3333in" version="1.1" style="shape-rendering:geometricPrecision; text-rendering:geometricPrecision; image-rendering:optimizeQuality; fill-rule:evenodd; clip-rule:evenodd"
viewBox="0 0 699.36 508.63"
 xmlns:xlink="http://www.w3.org/1999/xlink"
 xmlns:xodm="http://www.corel.com/coreldraw/odm/2003">
 <defs>
  <style type="text/css">
   <![CDATA[
    .str0 {stroke:#772400;stroke-width:1.27;stroke-miterlimit:2.61313}
    .str1 {stroke:#A3480F;stroke-width:1.27;stroke-miterlimit:2.61313}
    .fil3 {fill:none}
    .fil18 {fill:#0E0E0E}
    .fil9 {fill:#521B06}
    .fil8 {fill:#61230A}
    .fil15 {fill:#792E0F}
    .fil4 {fill:#832E09}
    .fil20 {fill:#964214}
    .fil11 {fill:#A3480F}
    .fil14 {fill:#AC5122}
    .fil10 {fill:#BA5F1A}
    .fil2 {fill:#C15719}
    .fil22 {fill:#CD5E17}
    .fil19 {fill:#D5772F}
    .fil7 {fill:#D67830}
    .fil1 {fill:#E18434}
    .fil24 {fill:#E8842C}
    .fil5 {fill:#F9C886}
    .fil0 {fill:#FFE7CC}
    .fil21 {fill:#0E0E0E;fill-rule:nonzero}
    .fil23 {fill:#151515;fill-rule:nonzero}
    .fil17 {fill:#572008;fill-rule:nonzero}
    .fil13 {fill:#61230A;fill-rule:nonzero}
    .fil16 {fill:#792E0F;fill-rule:nonzero}
    .fil12 {fill:#D67830;fill-rule:nonzero}
    .fil6 {fill:#F9C886;fill-rule:nonzero}
   ]]>
  </style>
 </defs>
 <g id="Layer_x0020_1">
  <metadata id="CorelCorpID_0Corel-Layer"/>
  <polygon class="fil0" points="-0,508.63 0,0 699.36,0 699.36,508.63 "/>
  <g id="_1318311357904">
   <path class="fil1" d="M123.05 46.3c0,0 -34.49,7.85 -50.88,50.88 -16.39,43.02 -25.95,83.93 -27.13,93.58 -1.18,9.66 0.52,18.45 4.08,23.25 0,0 -6.02,12.78 -4.67,16.28 1.35,3.49 25.95,10.4 28.65,7.54 2.7,-2.86 4.76,-16.35 4.76,-16.35 0,0 14.43,-5.97 22.61,-50.69 0,0 -1.92,26.56 6.53,31.41 0,0 -1.02,15.76 5.16,17.33 6.18,1.57 29.4,-4.52 47.05,-3.93 17.65,-0.59 40.87,5.5 47.05,3.93 6.18,-1.57 5.16,-17.33 5.16,-17.33 8.44,-4.85 6.53,-31.41 6.53,-31.41 8.18,44.72 22.61,50.69 22.61,50.69 0,0 2.06,13.49 4.76,16.35 2.7,2.86 27.3,-4.05 28.65,-7.54 1.35,-3.49 -4.67,-16.28 -4.67,-16.28 3.56,-4.8 5.26,-13.59 4.08,-23.25 -1.18,-9.66 -10.74,-50.56 -27.13,-93.58 -16.39,-43.02 -50.88,-50.88 -50.88,-50.88 0,0 -5.71,-10.13 -10.24,-12.1 -6.59,-2.87 -14.68,4.77 -26.7,4.77 -12.03,0 -18.55,-7.64 -25.14,-4.77 -4.53,1.97 -10.24,12.1 -10.24,12.1z"/>
   <path class="fil2" d="M104.76 54.93c-10.87,7.23 -24.14,20.06 -32.59,42.25 -16.39,43.02 -25.95,83.93 -27.13,93.58 -1.18,9.66 0.52,18.45 4.08,23.25 0,0 -6.02,12.78 -4.67,16.28 1.35,3.49 25.95,10.4 28.65,7.54 2.7,-2.86 4.76,-16.35 4.76,-16.35 0,0 14.22,-5.89 22.43,-49.73 -2.28,-42.7 4.47,-116.81 4.47,-116.82z"/>
   <path class="fil3 str0" d="M123.05 46.3c0,0 33.66,29.74 72.32,0"/>
   <path class="fil3 str0" d="M48.87 214.57c0,0 15.15,7.67 29,6.91"/>
   <path class="fil3 str0" d="M104.34 59.86c0,0 -31.73,15.89 -57.8,149.09"/>
   <path class="fil3 str0" d="M103.4 71.64c0,0 -20.34,15.04 -54.28,142.37"/>
   <path class="fil3 str0" d="M102.2 88.79c0,0 -23.26,46.81 -46.2,128.77"/>
   <path class="fil3 str0" d="M100.83 113.28c0,0 -33.07,89.75 -37.85,106.44"/>
   <line class="fil3 str0" x1="99.86" y1="145.21" x2="70.86" y2= "221.23" />
   <path class="fil3 str0" d="M99.91 161.23c0,0 -15.7,50.13 -23.77,60.3"/>
   <path class="fil3 str0" d="M107 202.19c0,0 39.77,-14.38 104.42,0"/>
   <path class="fil3 str0" d="M52 215.99c0,0 -4.03,11.2 -4.67,16.52"/>
   <path class="fil3 str0" d="M57.71 218.15c0,0 -4.08,12.23 -4.51,16.74"/>
   <path class="fil3 str0" d="M64.53 220.1c0,0 -2.01,12.55 -4.83,16.71"/>
   <path class="fil3 str0" d="M72.61 221.4c0,0 -3.07,13.55 -4.91,16.95"/>
   <path class="fil3 str0" d="M104.76 54.93c0,0 -6.62,70.98 -4.47,116.82"/>
   <path class="fil2" d="M213.61 54.93c10.87,7.23 24.14,20.06 32.59,42.25 16.39,43.02 25.95,83.93 27.13,93.58 1.18,9.66 -0.52,18.45 -4.08,23.25 0,0 6.02,12.78 4.67,16.28 -1.35,3.49 -25.95,10.4 -28.65,7.54 -2.7,-2.86 -4.76,-16.35 -4.76,-16.35 0,0 -14.22,-5.89 -22.43,-49.73 2.28,-42.7 -4.47,-116.81 -4.47,-116.82z"/>
   <path class="fil3 str0" d="M269.51 214.57c0,0 -15.15,7.67 -29,6.91"/>
   <path class="fil3 str0" d="M214.04 59.86c0,0 31.73,15.89 57.8,149.09"/>
   <path class="fil3 str0" d="M214.97 71.64c0,0 20.34,15.04 54.28,142.37"/>
   <path class="fil3 str0" d="M216.17 88.79c0,0 23.26,46.81 46.2,128.77"/>
   <path class="fil3 str0" d="M217.55 113.28c0,0 33.07,89.75 37.85,106.44"/>
   <line class="fil3 str0" x1="218.52" y1="145.21" x2="247.51" y2= "221.23" />
   <path class="fil3 str0" d="M218.46 161.23c0,0 15.7,50.13 23.77,60.3"/>
   <path class="fil3 str0" d="M266.37 215.99c0,0 4.03,11.2 4.67,16.52"/>
   <path class="fil3 str0" d="M260.67 218.15c0,0 4.08,12.23 4.51,16.74"/>
   <path class="fil3 str0" d="M253.85 220.1c0,0 2.01,12.55 4.83,16.71"/>
   <path class="fil3 str0" d="M245.76 221.4c0,0 3.07,13.55 4.91,16.95"/>
   <path class="fil3 str0" d="M213.61 54.93c0,0 6.62,70.98 4.47,116.82"/>
   <path class="fil3 str0" d="M139.13 33.92c0,0 -6.53,3.61 -11.18,15.96"/>
   <path class="fil3 str0" d="M144 35.59c0,0 -6.02,7.86 -7.89,18.73"/>
   <path class="fil3 str0" d="M149.7 37.64c0,0 -2.81,12.07 -2.29,20.51"/>
   <path class="fil3 str0" d="M157.58 38.96c0,0 -1.93,11.28 -1.2,20.47"/>
   <path class="fil3 str0" d="M180.51 33.62c0,0 6.53,3.61 11.18,15.96"/>
   <path class="fil3 str0" d="M175.48 35.05c0,0 6.02,7.86 7.89,18.73"/>
   <path class="fil3 str0" d="M170.14 36.87c0,0 2.81,12.07 2.29,20.51"/>
   <path class="fil3 str0" d="M162.06 38.67c0,0 1.93,11.28 1.2,20.47"/>
   <path class="fil3 str0" d="M113.14 200.44c0,0 0.32,19.85 6.97,19"/>
   <path class="fil3 str0" d="M125.86 197.94c0,0 -0.69,17.56 4.87,20.07"/>
   <path class="fil3 str0" d="M137.3 196.59c0,0 -2.1,17.4 2.49,20.2"/>
   <path class="fil3 str0" d="M149.34 195.89c0,0 -2.65,17.54 2.74,19.77"/>
   <path class="fil3 str0" d="M206.12 200.44c0,0 -0.32,19.85 -6.97,19"/>
   <path class="fil3 str0" d="M193.4 197.94c0,0 0.69,17.56 -4.87,20.07"/>
   <path class="fil3 str0" d="M181.96 196.59c0,0 2.1,17.4 -2.49,20.2"/>
   <path class="fil3 str0" d="M169.91 195.89c0,0 2.65,17.54 -2.74,19.77"/>
   <path class="fil3 str0" d="M159.87 195.85c0,0 -2.11,15.01 0.37,19.72"/>
   <g>
    <path class="fil4" d="M159.17 172.53c0,0 5.84,-12.36 12.61,-10.82 6.77,1.54 -8.47,14.46 -12.65,14.37 -4.17,-0.09 -19.07,-11.26 -13.41,-13.9 5.66,-2.64 13.45,10.36 13.45,10.36z"/>
    <path class="fil5" d="M159.17 158.85c0,0 5.84,-12.36 12.61,-10.82 6.77,1.54 -8.47,14.46 -12.65,14.37 -4.17,-0.09 -19.07,-11.26 -13.41,-13.9 5.66,-2.64 13.45,10.36 13.45,10.36z"/>
    <path class="fil4" d="M159.17 142.79c0,0 5.84,-12.36 12.61,-10.82 6.77,1.54 -8.47,14.46 -12.65,14.37 -4.17,-0.09 -19.07,-11.26 -13.41,-13.9 5.66,-2.64 13.45,10.36 13.45,10.36z"/>
    <path class="fil5" d="M159.17 126.06c0,0 5.84,-12.36 12.61,-10.82 6.77,1.54 -8.47,14.46 -12.65,14.37 -4.17,-0.09 -19.07,-11.26 -13.41,-13.9 5.66,-2.64 13.45,10.36 13.45,10.36z"/>
    <path class="fil4" d="M159.17 108.1c0,0 5.84,-12.36 12.61,-10.82 6.77,1.54 -8.47,14.46 -12.65,14.37 -4.17,-0.09 -19.07,-11.26 -13.41,-13.9 5.66,-2.64 13.45,10.36 13.45,10.36z"/>
    <polygon class="fil6" points="159.87,98.19 159.87,187.31 158.48,187.31 158.48,98.19 "/>
    <path class="fil5" d="M159.17 100.62c0,0 7.78,-22.3 -0.27,-22.65 -8.05,-0.35 0.27,22.65 0.27,22.65z"/>
   </g>
   <g>
    <path class="fil5" d="M196.33 166.25c0,0 4.68,-9.92 10.11,-8.68 5.43,1.24 -6.8,11.6 -10.14,11.52 -3.35,-0.07 -15.3,-9.03 -10.76,-11.15 4.54,-2.12 10.79,8.3 10.79,8.3z"/>
    <path class="fil4" d="M196.33 153.37c0,0 4.68,-9.92 10.11,-8.68 5.43,1.24 -6.8,11.6 -10.14,11.52 -3.35,-0.07 -15.3,-9.03 -10.76,-11.15 4.54,-2.12 10.79,8.31 10.79,8.31z"/>
    <path class="fil5" d="M196.33 139.95c0,0 4.68,-9.92 10.11,-8.68 5.43,1.24 -6.8,11.6 -10.14,11.52 -3.35,-0.07 -15.3,-9.03 -10.76,-11.15 4.54,-2.12 10.79,8.3 10.79,8.3z"/>
    <path class="fil4" d="M196.33 125.54c0,0 4.68,-9.92 10.11,-8.68 5.43,1.24 -6.8,11.6 -10.14,11.52 -3.35,-0.07 -15.3,-9.03 -10.76,-11.15 4.54,-2.12 10.79,8.31 10.79,8.31z"/>
    <polygon class="fil6" points="196.88,117.6 196.88,178.63 195.77,178.63 195.77,117.6 "/>
    <path class="fil5" d="M196.33 119.54c0,0 6.24,-17.89 -0.22,-18.17 -6.46,-0.28 0.22,18.17 0.22,18.17z"/>
   </g>
   <g>
    <path class="fil5" d="M121.83 166.25c0,0 4.68,-9.92 10.11,-8.68 5.43,1.24 -6.8,11.6 -10.14,11.52 -3.35,-0.07 -15.3,-9.03 -10.76,-11.15 4.54,-2.12 10.79,8.3 10.79,8.3z"/>
    <path class="fil4" d="M121.83 153.37c0,0 4.68,-9.92 10.11,-8.68 5.43,1.24 -6.8,11.6 -10.14,11.52 -3.35,-0.07 -15.3,-9.03 -10.76,-11.15 4.54,-2.12 10.79,8.31 10.79,8.31z"/>
    <path class="fil5" d="M121.83 139.95c0,0 4.68,-9.92 10.11,-8.68 5.43,1.24 -6.8,11.6 -10.14,11.52 -3.35,-0.07 -15.3,-9.03 -10.76,-11.15 4.54,-2.12 10.79,8.3 10.79,8.3z"/>
    <path class="fil4" d="M121.83 125.54c0,0 4.68,-9.92 10.11,-8.68 5.43,1.24 -6.8,11.6 -10.14,11.52 -3.35,-0.07 -15.3,-9.03 -10.76,-11.15 4.54,-2.12 10.79,8.31 10.79,8.31z"/>
    <polygon class="fil6" points="122.39,117.6 122.39,178.63 121.28,178.63 121.28,117.6 "/>
    <path class="fil5" d="M121.83 119.54c0,0 6.24,-17.89 -0.22,-18.17 -6.46,-0.28 0.22,18.17 0.22,18.17z"/>
   </g>
  </g>
  <g id="_1318311389920">
   <path class="fil7" d="M111.1 259.62c0,0 -6.64,-0.02 -12.77,12.55 -6.13,12.57 -19.55,33.02 -18.67,42.95 0.88,9.93 10.82,25.83 21.85,38.82 6.46,7.61 21.63,21.38 34.27,33.53 22.2,21.34 21.4,29.53 37.51,52.59 4.66,6.67 20.44,-2.79 28.01,-8.98 7.57,-6.19 27.24,-17.93 27.39,-22.35 1.31,-39.19 -136.46,-106.99 -117.59,-149.11z"/>
   <path class="fil8" d="M111.1 259.62c0,0 10.68,-0.65 21.08,1.9 10.4,2.55 23.74,-2.1 26.49,2.79 2.75,4.89 -2.48,25.04 -11.8,30.66 0,0 -15.76,-3.15 -23.88,1.8 0,0 -19.39,-20.91 -11.89,-37.15z"/>
   <path class="fil9" d="M155.55 283.81c-0.07,0.16 -0.14,0.31 -0.21,0.46 -0.92,-0.27 -10.39,-2.94 -18.38,-2.99 -7.9,-0.05 -21.6,1.71 -23.29,1.93 -0.08,-0.16 -0.16,-0.32 -0.24,-0.47l-0.07 -0.49c0.04,-0.01 15.1,-2.02 23.6,-1.96 8.53,0.06 18.69,3.04 18.72,3.05l-0.14 0.47zm-34.68 10.46c-0.1,-0.13 -0.21,-0.26 -0.32,-0.4l-0.22 -0.44c0.04,-0.02 15.21,-7.73 28,-0.08l-0.51 0.85c-11.76,-7.03 -25.68,-0.55 -26.95,0.07zm-4.4 -6.16c-0.1,-0.15 -0.19,-0.3 -0.29,-0.46l-0.08 -0.49c0.04,-0.01 13.53,-2.25 21.86,-1.87 8.39,0.39 13.96,3.42 13.97,3.43l-0.47 0.88c-0.02,-0.01 -5.39,-2.94 -13.55,-3.32 -7.63,-0.35 -19.72,1.55 -21.44,1.83zm-6.33 -14.14c-0.04,-0.17 -0.08,-0.34 -0.12,-0.51l0.02 -0.49c0.03,0 11.25,0.49 19.84,-1.11 8.75,-1.63 28.21,3.68 28.26,3.69l-0.26 0.96c-0.06,-0.02 -19.3,-5.27 -27.82,-3.68 -8.14,1.52 -18.6,1.18 -19.92,1.13zm-0.31 -10.56c0.04,-0.18 0.08,-0.35 0.12,-0.53 1.53,-0.2 11.83,-1.35 23.55,2.82 12.45,4.43 25.3,2.24 25.34,2.24l0.16 0.98c-0.04,0.01 -13.15,2.24 -25.84,-2.28 -12.45,-4.43 -23.24,-2.75 -23.27,-2.75l-0.07 -0.49z"/>
   <path class="fil7" d="M158.67 264.31c0,0 4.03,4.97 6.97,10.98 2.94,6.01 6.62,11.24 13.31,19.53 6.69,8.29 6.55,16.58 3.49,22.55 -3.07,5.97 -14.25,22.02 -14.25,22.02 0,0 -29.17,-22.18 -34.33,-30.74 12.1,-12.72 27.28,-24.56 24.82,-44.34z"/>
   <path class="fil10" d="M170.34 336.26c-1.3,1.91 -2.16,3.14 -2.16,3.14 0,0 -29.17,-22.18 -34.33,-30.74 0.41,-0.43 0.82,-0.85 1.23,-1.28 6.66,5.64 23.51,19.82 35.26,28.89z"/>
   <path class="fil11" d="M164.58 273.24c0.12,0.22 0.24,0.44 0.36,0.66 -0.8,3.2 -5.7,19.82 -25.27,41.49 -0.24,-0.24 -0.47,-0.47 -0.7,-0.7 21.56,-23.87 25.12,-41.49 25.13,-41.56l0.49 0.1zm5.69 10.04c0.11,0.16 0.22,0.32 0.33,0.48 -1.09,2.38 -9.19,19.62 -23.48,38.49 -0.25,-0.22 -0.5,-0.44 -0.75,-0.66 15.27,-20.16 23.42,-38.45 23.45,-38.52l0.45 0.2zm4.64 6.43l0.35 0.45c-0.99,2.22 -8.62,19 -21.57,37.7 -0.25,-0.21 -0.51,-0.42 -0.77,-0.64 13.78,-19.92 21.5,-37.64 21.53,-37.71l0.46 0.2zm4.04 5.11c0.12,0.15 0.23,0.29 0.35,0.44 -0.98,2.15 -8.71,18.85 -20.19,37.01l-0.78 -0.63c12.21,-19.32 20.14,-36.96 20.17,-37.03l0.45 0.21zm3.59 5.71c0.09,0.2 0.18,0.4 0.27,0.6 -1.09,2.27 -7.06,14.41 -20.07,34.02 -0.26,-0.2 -0.52,-0.41 -0.78,-0.62 14.38,-21.69 20.11,-34.16 20.14,-34.22l0.45 0.21z"/>
   <path class="fil7" d="M95.88 346.92c0,0 -17.2,17.98 -26.82,39.31 -9.62,21.33 -26.22,32.34 -26.92,36.13 -0.7,3.79 20.2,17.1 27.03,25.25 6.83,8.16 13.55,13.89 16.39,12.66 2.84,-1.23 22.65,-14.62 31.85,-37.27 9.21,-22.65 17,-36.85 17,-36.85 -3.75,-4.43 -27.33,-24.65 -38.53,-39.24z"/>
   <path class="fil10" d="M95.88 346.92c0,0 -2.2,2.3 -5.47,6.24 7.38,11.3 21.66,30.72 39.18,42.48 2.97,-6.1 4.83,-9.48 4.83,-9.48 -3.75,-4.43 -27.33,-24.65 -38.53,-39.24z"/>
   <path class="fil11" d="M46.4 427.97c0.13,0.12 0.26,0.23 0.39,0.35 12.31,-6.99 18.21,-19.03 25.25,-33.4 6.42,-13.11 13.8,-28.17 27.91,-43.05 -0.22,-0.25 -0.44,-0.51 -0.66,-0.76 -14.25,15 -21.68,30.17 -28.15,43.37 -6.99,14.27 -12.84,26.22 -24.99,33.05l0.24 0.43zm7.54 6.28l0.42 0.33c1.45,-0.87 12.11,-7.68 23.65,-26.81 2.53,-4.19 4.67,-8.05 6.72,-11.77 6.08,-10.99 11.48,-20.75 24.44,-34.26 -0.23,-0.24 -0.47,-0.47 -0.7,-0.71 -13.06,13.61 -18.49,23.43 -24.61,34.49 -2.05,3.71 -4.18,7.56 -6.7,11.74 -12.27,20.33 -23.43,26.54 -23.46,26.56l0.25 0.43zm7.7 6.24c0.16,0.13 0.32,0.27 0.48,0.4 1.42,-0.42 6.39,-2.68 17.8,-15.03 5.74,-6.21 11.72,-15.43 18.58,-26.01 5.85,-9.03 12.36,-19.06 19.9,-29.06l-0.72 -0.69c-7.6,10.06 -14.13,20.14 -20.02,29.21 -6.84,10.56 -12.8,19.74 -18.48,25.88 -13.62,14.74 -17.56,14.8 -17.57,14.8l0.02 0.5zm8.64 8.44l0.33 0.38 0.36 0.34c0.05,-0.06 17.93,-19.34 27.61,-36.25 6.32,-11.04 15.25,-22.61 26.39,-36.38l-0.73 -0.68c-11.18,13.83 -20.16,25.44 -26.53,36.57 -9.39,16.4 -26.56,35.08 -27.44,36.03zm6.19 6.48c0.13,0.12 0.26,0.23 0.38,0.35 23.11,-14.47 29.48,-28.17 37.63,-45.67 3.94,-8.47 8.31,-17.84 15.21,-28.64 -0.24,-0.23 -0.48,-0.46 -0.74,-0.7 -6.99,10.91 -11.39,20.37 -15.37,28.92 -8.09,17.38 -14.42,30.98 -37.37,45.32l0.26 0.42z"/>
   <path class="fil3 str1" d="M104.38 263.31c0,0 -4.52,22.24 17.66,44 30.83,30.26 89.1,61.83 101.98,107.11"/>
   <path class="fil3 str1" d="M95.34 277.94c0,0 1.77,32.02 46.47,61.75 44.7,29.73 68.1,65 73.97,80.97"/>
   <path class="fil3 str1" d="M89.24 289.15c0,0 -2.43,27.64 43.26,61.63 45.69,33.99 66.68,62.43 70,79.34"/>
   <path class="fil3 str1" d="M84.48 298.48c0,0 8.06,35.72 42.97,60.56 34.91,24.84 60.84,63.4 65.67,77.76"/>
   <path class="fil3 str1" d="M81.09 306.74c0,0 3.26,26.69 36.47,54.8 33.2,28.1 59.15,52.88 63.46,80.51"/>
   <path class="fil12" d="M43.17 424.63c0.22,-0.16 0.53,-0.11 0.69,0.11 0.16,0.22 0.11,0.53 -0.11,0.69l-13.85 10.04c-0.22,0.16 -0.53,0.11 -0.7,-0.11 -0.16,-0.22 -0.11,-0.53 0.11,-0.7l13.85 -10.04z"/>
   <path class="fil12" d="M47.75 429.12c0.19,-0.2 0.51,-0.2 0.71,-0.01 0.2,0.19 0.2,0.51 0.01,0.71l-10.8 11.09c-0.19,0.2 -0.51,0.2 -0.71,0.01 -0.2,-0.19 -0.2,-0.51 -0.01,-0.71l10.8 -11.09z"/>
   <path class="fil12" d="M52.9 433.47c0.15,-0.23 0.46,-0.29 0.69,-0.14 0.23,0.15 0.29,0.46 0.14,0.69l-9.01 13.72c-0.15,0.23 -0.46,0.29 -0.69,0.14 -0.23,-0.15 -0.29,-0.46 -0.14,-0.69l9.01 -13.72z"/>
   <path class="fil12" d="M59.58 438.78c0.18,-0.21 0.49,-0.24 0.7,-0.06 0.21,0.18 0.24,0.49 0.06,0.7l-10.07 11.84c-0.18,0.21 -0.49,0.24 -0.7,0.06 -0.21,-0.18 -0.24,-0.49 -0.06,-0.7l10.07 -11.84z"/>
   <path class="fil12" d="M66.54 444.86c0.19,-0.2 0.5,-0.21 0.7,-0.02 0.2,0.19 0.21,0.5 0.02,0.7l-10.83 11.49c-0.19,0.2 -0.5,0.21 -0.7,0.02 -0.2,-0.19 -0.21,-0.5 -0.02,-0.7l10.83 -11.49z"/>
   <path class="fil12" d="M71.57 450.52c0.17,-0.22 0.48,-0.25 0.7,-0.08 0.22,0.17 0.25,0.48 0.08,0.7l-9.54 12.04c-0.17,0.22 -0.48,0.25 -0.7,0.08 -0.22,-0.17 -0.25,-0.48 -0.08,-0.7l9.54 -12.04z"/>
   <path class="fil12" d="M77.51 456.3c0.19,-0.2 0.51,-0.2 0.7,-0 0.2,0.19 0.2,0.51 0,0.7l-10.4 10.53c-0.19,0.2 -0.51,0.2 -0.7,0 -0.2,-0.19 -0.2,-0.51 -0,-0.7l10.4 -10.53z"/>
   <path class="fil12" d="M82.67 459.93c0.1,-0.25 0.39,-0.38 0.65,-0.27 0.25,0.1 0.38,0.39 0.27,0.65l-5.78 14.04c-0.1,0.25 -0.39,0.38 -0.65,0.27 -0.25,-0.1 -0.38,-0.39 -0.27,-0.65l5.78 -14.04z"/>
   <path class="fil12" d="M226.9 411.83c-0.23,-0.16 -0.28,-0.47 -0.12,-0.69 0.16,-0.23 0.47,-0.28 0.69,-0.12l11.93 8.4c0.23,0.16 0.28,0.47 0.12,0.69 -0.16,0.23 -0.47,0.28 -0.69,0.12l-11.93 -8.4z"/>
   <path class="fil12" d="M221.35 416.61c-0.18,-0.21 -0.16,-0.52 0.05,-0.7 0.21,-0.18 0.52,-0.16 0.7,0.05l10.2 11.68c0.18,0.21 0.16,0.52 -0.05,0.7 -0.21,0.18 -0.52,0.16 -0.7,-0.05l-10.2 -11.68z"/>
   <path class="fil12" d="M216.83 419.87c-0.14,-0.23 -0.07,-0.54 0.17,-0.68 0.23,-0.14 0.54,-0.07 0.68,0.17l7.92 12.91c0.14,0.23 0.07,0.54 -0.17,0.68 -0.23,0.14 -0.54,0.07 -0.68,-0.17l-7.92 -12.91z"/>
   <path class="fil12" d="M210.29 424.59c-0.19,-0.2 -0.18,-0.52 0.03,-0.7 0.2,-0.19 0.52,-0.18 0.7,0.03l10.61 11.41c0.19,0.2 0.18,0.52 -0.03,0.7 -0.2,0.19 -0.52,0.18 -0.7,-0.03l-10.61 -11.41z"/>
   <path class="fil12" d="M204.64 428.51c-0.16,-0.22 -0.11,-0.54 0.12,-0.69 0.22,-0.16 0.54,-0.11 0.69,0.12l9.17 12.95c0.16,0.22 0.11,0.54 -0.12,0.69 -0.22,0.16 -0.54,0.11 -0.69,-0.12l-9.17 -12.95z"/>
   <path class="fil12" d="M198.29 433.45c-0.19,-0.2 -0.17,-0.52 0.03,-0.7 0.2,-0.18 0.52,-0.17 0.7,0.03l10.43 11.49c0.18,0.2 0.17,0.52 -0.03,0.7 -0.2,0.18 -0.52,0.17 -0.7,-0.03l-10.43 -11.49z"/>
   <path class="fil12" d="M193.66 436.45c-0.13,-0.24 -0.04,-0.54 0.2,-0.67 0.24,-0.13 0.54,-0.04 0.67,0.2l7.48 13.75c0.13,0.24 0.04,0.54 -0.2,0.67 -0.24,0.13 -0.54,0.04 -0.67,-0.2l-7.48 -13.75z"/>
   <path class="fil12" d="M186.42 440.37c-0.15,-0.23 -0.08,-0.54 0.16,-0.69 0.23,-0.15 0.54,-0.08 0.69,0.16l9.17 14.48c0.15,0.23 0.08,0.54 -0.16,0.69 -0.23,0.15 -0.54,0.08 -0.69,-0.16l-9.17 -14.48z"/>
   <path class="fil12" d="M178.75 442.39c-0.05,-0.27 0.13,-0.53 0.4,-0.58 0.27,-0.05 0.53,0.13 0.58,0.4l2.68 14.86c0.05,0.27 -0.13,0.53 -0.4,0.58 -0.27,0.05 -0.53,-0.13 -0.58,-0.4l-2.68 -14.86z"/>
  </g>
  <g id="_1318311393520">
   <path class="fil8" d="M420.23 106.01c0,0 4.33,-0.64 1.86,-3.41 0,0 4.03,-1.92 1.36,-4.49 0,0 3.58,-2.62 0.86,-5.04 0,0 2.29,-2.92 -0.52,-5.45 0,0 1.63,-3.99 -1.8,-5.74 0,0 0.46,-2.62 -2.44,-3.32 0,0 0.99,-3.48 -2.67,-2.38 0,0 -0.12,-3.65 -3.54,-2.67 0,0 -0.58,-3.48 -3.77,-2.55 0,0 -0.99,-2.03 -3.02,-1.16 0,0 -1.74,-3.25 -4.7,-0.93 0,0 -2.84,-4.47 -6.56,0.06 0,0 -1.97,-1.86 -3.25,0.75 0,0 -3.6,-1.68 -5.28,1.45 0,0 -2.63,-1.38 -3.37,1.88 0,0 -2.64,0.23 -2.41,2.13 0,0 -2.68,0.23 -2.52,3.34 0,0 -2.25,1.2 -1.2,2.72 0,0 -3.18,1.55 -1.47,4.23 0,0 -1.32,1.51 -0.12,2.76 0,0 -3.48,1.9 -0.71,4.02 0,0 -1.82,2.47 0.5,4.59 0,0 -2.22,2.72 0.81,4.04 0,0 -1.25,2.83 2.32,3.35 0,0 0.41,4.73 3.75,4.03 0,0 2.1,3.42 5.29,2.18 0,0 1.32,2.26 3.5,0.86 0,0 2.64,1.94 4.51,0.47 0,0 3.5,2.1 5.6,-0.23 0,0 1.4,2.02 2.57,0.39 0,0 2.88,1.71 4.12,-0.31 0,0 2.8,2.02 4.04,-0.47 0,0 3.5,1.87 4.2,-1.17 0,0 4.04,0.39 4.04,-3.91z"/>
   <path class="fil8" d="M340.01 202.91c0,0 71.28,9.87 117.75,0.18 0,0 -62.82,-29.69 -117.75,-0.18z"/>
   <path class="fil7" d="M399.25 100.87c-14.17,0.11 -52.4,12.36 -52.07,59.78 0,0 -11.16,0.31 -12.25,11.98 -1.09,11.67 -3.23,30.99 7.51,30.57 10.38,-0.4 31.22,-9.19 56.8,-8.86 25.58,-0.33 46.42,8.47 56.8,8.86 10.75,0.41 8.6,-18.9 7.51,-30.57 -1.09,-11.67 -12.25,-11.98 -12.25,-11.98 0.33,-47.42 -37.9,-59.89 -52.07,-59.78z"/>
   <path class="fil8" d="M450.88 151.53c-0.08,-0.7 -0.16,-1.39 -0.25,-2.07 -0.53,-1.33 -2.2,-5.04 -4.09,-4.46 -2.29,0.7 2.87,6.58 4.28,6.53 0.02,-0 0.04,-0 0.06,-0.01zm-2.49 -12.37c-0.21,-0.7 -0.44,-1.38 -0.68,-2.05 -0.86,-1.21 -2.9,-3.76 -4.36,-2.93 -1.87,1.06 3.67,5.16 5.04,4.98z"/>
   <path class="fil13" d="M347.61 161.15c-0.02,0.01 -5.83,4.84 -5.83,18.98 0,7.19 0.26,12.32 0.93,15.89 0.65,3.43 1.65,5.38 3.17,6.33l-0.7 1.11c-1.85,-1.16 -3.05,-3.37 -3.77,-7.2 -0.69,-3.67 -0.96,-8.88 -0.96,-16.14 0,-14.75 6.27,-19.96 6.29,-19.98l0.86 1z"/>
   <path class="fil13" d="M357.57 158.82c-0.01,0.02 -4.23,7.61 -2.63,21.6 1.61,14.05 4.63,19.2 4.63,19.22l-1.14 0.65c-0.01,-0.02 -3.16,-5.4 -4.8,-19.72 -1.65,-14.39 2.77,-22.35 2.78,-22.37l1.15 0.63z"/>
   <path class="fil13" d="M370.95 155.94c-0.01,0.06 -4.84,21.06 0.32,41.22l-1.28 0.32c-5.24,-20.46 -0.34,-41.77 -0.33,-41.83l1.28 0.29z"/>
   <polygon class="fil13" points="384.99,154.69 386.78,194.9 385.47,194.96 383.68,154.75 "/>
   <path class="fil13" d="M399.91 154.35c0.01,0.08 4.19,27.8 1.92,40.11l-1.29 -0.24c2.23,-12.09 -1.92,-39.6 -1.93,-39.68l1.3 -0.19z"/>
   <path class="fil13" d="M414.12 155.16c0.02,0.08 5.68,27.64 2.08,40.3l-1.27 -0.36c3.51,-12.36 -2.09,-39.61 -2.1,-39.69l1.29 -0.26z"/>
   <path class="fil13" d="M427.53 156.17c0.02,0.06 8.53,20.25 2.71,41.68l-1.27 -0.35c5.7,-21 -2.63,-40.78 -2.65,-40.84l1.22 -0.5z"/>
   <path class="fil13" d="M451.95 160.45c0.02,0.06 6.95,20.68 -0.1,42.37l-1.25 -0.41c6.92,-21.28 0.12,-41.5 0.1,-41.56l1.25 -0.41z"/>
   <path class="fil13" d="M440.29 157.89c0.02,0.06 7.35,20.6 0.29,42.42l-1.25 -0.4c6.92,-21.39 -0.26,-41.52 -0.28,-41.58l1.24 -0.43z"/>
   <path class="fil13" d="M347.05 159.28c0.16,-0.03 55.81,-12.12 104.44,0.74l-0.34 1.27c-48.32,-12.78 -103.67,-0.76 -103.83,-0.72l-0.27 -1.29z"/>
   <path class="fil13" d="M388.44 102.52c-0.08,0.05 -27.4,16.17 -22.55,54.42l-1.3 0.16c-4.96,-39.1 23.1,-55.66 23.18,-55.71l0.68 1.12z"/>
   <path class="fil13" d="M382.3 155.37c-0,-0.13 -1.58,-43.75 11.16,-55.14l0.88 0.98c-12.28,10.98 -10.73,54 -10.73,54.12l-1.31 0.04z"/>
   <path class="fil13" d="M399.9 100.32c0.02,0.11 7.36,38.75 5.25,54.54l-1.3 -0.17c2.08,-15.58 -5.22,-54.02 -5.24,-54.13l1.29 -0.24z"/>
   <path class="fil13" d="M406.69 100.18c0.06,0.05 20.53,18.32 20.88,56.23l-1.31 0.01c-0.34,-37.33 -20.4,-55.22 -20.45,-55.27l0.89 -0.97z"/>
   <path class="fil13" d="M418.6 104.04c0.08,0.05 26.32,16.77 25.97,54.86l-1.31 -0.01c0.34,-37.37 -25.3,-53.7 -25.38,-53.75l0.72 -1.1z"/>
   <path class="fil8" d="M354.97 152.91c0,0 1.97,-5.62 4.26,-4.92 2.29,0.7 -2.87,6.58 -4.28,6.53 -1.41,-0.04 -6.45,-5.12 -4.54,-6.32 1.91,-1.2 4.55,4.71 4.55,4.71z"/>
   <path class="fil8" d="M356.29 142.8c0,0 2.87,-4.62 4.77,-3.54 1.9,1.08 -3.85,5.29 -5.1,4.97 -1.25,-0.32 -4.73,-5.83 -2.79,-6.52 1.94,-0.69 3.12,5.09 3.12,5.09z"/>
   <path class="fil8" d="M358.79 133.06c0,0 3.45,-3.53 4.92,-2.2 1.47,1.33 -4.45,3.93 -5.5,3.4 -1.04,-0.53 -3.05,-6.1 -1.19,-6.33 1.86,-0.23 1.76,5.12 1.76,5.12z"/>
   <path class="fil8" d="M376.24 128.35c0,0 2.54,-4.23 4.28,-3.27 1.74,0.95 -3.43,4.85 -4.56,4.58 -1.14,-0.27 -4.37,-5.23 -2.62,-5.89 1.75,-0.65 2.9,4.58 2.9,4.58z"/>
   <path class="fil8" d="M374.51 139.02c0,0 2.58,-5.57 4.86,-4.62 2.28,0.95 -3.59,6.46 -5.03,6.27 -1.44,-0.18 -6.1,-5.89 -4.02,-6.93 2.08,-1.04 4.2,5.28 4.2,5.28z"/>
   <path class="fil8" d="M373.47 151.42c0,0 2.66,-6.81 5.44,-5.85 2.78,0.96 -3.79,7.94 -5.52,7.83 -1.73,-0.11 -7.69,-6.55 -5.3,-7.94 2.4,-1.39 5.38,5.96 5.38,5.96z"/>
   <path class="fil8" d="M435.56 149.17c0,0 -1.97,-5.62 -4.26,-4.92 -2.29,0.7 2.87,6.58 4.28,6.53 1.41,-0.04 6.45,-5.12 4.54,-6.32 -1.91,-1.2 -4.55,4.71 -4.55,4.71z"/>
   <path class="fil8" d="M434.24 139.06c0,0 -2.87,-4.62 -4.77,-3.54 -1.9,1.08 3.85,5.29 5.1,4.97 1.25,-0.32 4.73,-5.83 2.79,-6.52 -1.94,-0.69 -3.12,5.09 -3.12,5.09z"/>
   <path class="fil8" d="M431.74 129.33c0,0 -3.45,-3.53 -4.92,-2.2 -1.47,1.33 4.45,3.93 5.5,3.4 1.04,-0.53 3.05,-6.1 1.19,-6.33 -1.86,-0.23 -1.76,5.12 -1.76,5.12z"/>
   <path class="fil8" d="M416.56 137.71c0,0 -2.43,-4.86 -4.42,-3.97 -1.99,0.9 3.34,5.62 4.62,5.42 1.27,-0.2 5.25,-5.37 3.38,-6.24 -1.87,-0.87 -3.58,4.78 -3.58,4.78z"/>
   <path class="fil8" d="M414.54 127.41c0,0 -2.35,-4.34 -4.13,-3.47 -1.78,0.87 3.2,5 4.35,4.78 1.15,-0.22 4.6,-5.03 2.88,-5.76 -1.72,-0.73 -3.1,4.44 -3.1,4.44z"/>
   <path class="fil8" d="M416.26 147.94c0,0 -2.19,-6.23 -4.73,-5.45 -2.54,0.78 3.18,7.29 4.74,7.24 1.56,-0.05 7.15,-5.68 5.03,-7.01 -2.12,-1.33 -5.04,5.22 -5.04,5.22z"/>
   <path class="fil8" d="M393.5 148.99c0,0 -2.75,-6.47 -5.39,-5.47 -2.65,1 3.87,7.53 5.53,7.37 1.66,-0.16 7.21,-6.52 4.87,-7.79 -2.34,-1.27 -5,5.89 -5,5.89z"/>
   <path class="fil8" d="M392.78 138.96c0,0 -1.77,-5.14 -3.86,-4.51 -2.09,0.63 2.58,6.01 3.87,5.98 1.29,-0.03 5.91,-4.64 4.17,-5.74 -1.74,-1.1 -4.17,4.27 -4.17,4.27z"/>
   <path class="fil8" d="M393.16 129.12c0,0 -1.55,-4.68 -3.45,-4.14 -1.91,0.55 2.27,5.49 3.44,5.47 1.17,-0.01 5.42,-4.14 3.85,-5.16 -1.57,-1.02 -3.84,3.83 -3.84,3.83z"/>
   <path class="fil8" d="M393.45 120.46c0,0 -1.35,-4.08 -3.01,-3.6 -1.66,0.48 1.98,4.78 2.99,4.76 1.02,-0.01 4.72,-3.6 3.35,-4.49 -1.36,-0.89 -3.34,3.33 -3.34,3.33z"/>
   <path class="fil8" d="M393.98 113.47c0.7,0.06 3.42,-5.38 0.5,-5.58 -2.92,-0.2 -1.2,5.52 -0.5,5.58z"/>
   <path class="fil8" d="M377.59 122.88c0.66,0.23 4.67,-4.33 1.9,-5.27 -2.77,-0.94 -2.57,5.03 -1.9,5.27z"/>
   <path class="fil8" d="M362.67 124.21c0.62,0.33 5.27,-3.57 2.68,-4.92 -2.59,-1.35 -3.3,4.59 -2.68,4.92z"/>
   <path class="fil8" d="M413.78 122.1c0.66,-0.23 0.96,-6.3 -1.79,-5.31 -2.75,0.99 1.13,5.54 1.79,5.31z"/>
   <path class="fil8" d="M429.75 124.67c0.62,-0.33 -0.05,-6.37 -2.61,-4.96 -2.56,1.41 1.99,5.29 2.61,4.96z"/>
  </g>
  <g id="_1318311398176">
   <path class="fil14" d="M541.71 73.97c0,0 1.58,54.51 -0.73,61.71 -2.32,7.2 -41.28,39.06 -44.29,54.93 -3,15.87 8.15,23.59 25.52,18.87 17.37,-4.72 26.81,-31.74 39.68,-39.25 12.87,-7.51 21.88,-7.72 20.8,-30.03 -1.07,-22.31 -0.86,-66.83 -0.86,-66.83l-40.12 0.59z"/>
   <path class="fil15" d="M542.15 95.3c0.02,1.34 0.03,2.71 0.04,4.1l39.68 0c-0.01,-1.39 -0.02,-2.76 -0.02,-4.1l-39.7 0z"/>
   <path class="fil5" d="M542.21 101.6c0.01,1.29 0.02,2.59 0.02,3.89l39.68 0c-0.01,-1.31 -0.02,-2.61 -0.03,-3.89l-39.67 0z"/>
   <path class="fil5" d="M541.82 78.16c0.03,1.12 0.06,2.43 0.09,3.89l39.91 0c0,-1.45 0,-2.76 0,-3.89l-40 0z"/>
   <path class="fil15" d="M584.07 74.3c1.46,-1.3 1.22,-20.91 -1,-22.97 -2.22,-2.06 -39.87,-1.35 -42.56,0 -2.69,1.35 -1.75,21.52 -1.42,22.93 0.35,1.49 43.53,1.34 44.99,0.04z"/>
   <path class="fil16" d="M548.26 105.48c0,0.08 0.42,26.96 -2.29,32.96 -1.43,3.16 -10.05,12.5 -19.09,22.29 -8.17,8.85 -16.69,18.08 -20.46,23.34l-0.85 -0.61c3.8,-5.3 12.34,-14.56 20.54,-23.44 8.98,-9.73 17.54,-19 18.91,-22.01 2.62,-5.79 2.2,-32.44 2.2,-32.52l1.04 -0.01z"/>
   <path class="fil16" d="M554.76 105.49c-0,0.08 -0.11,29.17 -2.97,35.25 -2.84,6.05 -38.71,44.86 -38.82,44.97l-0.77 -0.71c0.1,-0.11 35.87,-38.8 38.64,-44.7 2.76,-5.87 2.87,-34.73 2.87,-34.81l1.04 0z"/>
   <path class="fil16" d="M561.2 105.5c-0,0.09 -0.4,29.59 -3.93,36.53 -3.5,6.89 -37.38,46.81 -37.48,46.92l-0.8 -0.67c0.1,-0.11 33.89,-39.94 37.34,-46.72 3.42,-6.73 3.82,-35.99 3.82,-36.07l1.04 0.01z"/>
   <path class="fil16" d="M524.93 191.12c0.1,-0.13 36.16,-45.26 37.32,-49.5 1.17,-4.28 3.66,-36.08 3.66,-36.17l1.04 0.08c-0.01,0.09 -2.5,31.97 -3.7,36.37 -1.21,4.44 -37.41,49.75 -37.51,49.88l-0.81 -0.65z"/>
   <polygon class="fil16" points="572.61,105.53 570.17,139.56 569.12,139.49 571.57,105.45 "/>
   <polygon class="fil16" points="529.47,194.64 563.59,152.93 564.4,153.59 530.28,195.31 "/>
   <polygon class="fil16" points="577.82,105.51 576.62,133.52 575.58,133.48 576.78,105.47 "/>
   <path class="fil16" d="M563.2 164.74c-0.02,0.01 -5.44,2.34 -29.69,35.26l-0.84 -0.62c24.4,-33.14 30.07,-35.58 30.09,-35.59l0.45 0.94z"/>
   <path class="fil17" d="M544.19 50.87c-0.01,0.05 -2.01,16.3 -0.2,23.93l-1.16 0.28c-1.86,-7.84 0.18,-24.3 0.18,-24.35l1.19 0.14z"/>
   <path class="fil5" d="M500.32 182.37c-1.87,3.02 -3.17,5.82 -3.63,8.24 -3,15.87 8.15,23.59 25.52,18.87 5.01,-1.36 9.36,-4.58 13.33,-8.65 -8.8,-13.41 -23.76,-17.48 -35.22,-18.46z"/>
   <path class="fil17" d="M550.52 50.46c-0.01,0.05 -2.02,16.58 -0.2,24.34l-1.16 0.27c-1.86,-7.96 0.18,-24.7 0.18,-24.75l1.19 0.14z"/>
   <path class="fil17" d="M557.45 50.21c-0.01,0.05 -2.02,16.92 -0.2,24.84l-1.16 0.27c-1.86,-8.12 0.18,-25.2 0.18,-25.25l1.19 0.14z"/>
   <path class="fil17" d="M580.31 50.45c0.01,0.05 2.04,16.69 0.18,24.61l-1.16 -0.27c1.81,-7.71 -0.2,-24.15 -0.2,-24.2l1.19 -0.14z"/>
   <path class="fil17" d="M573.98 50.05c0.01,0.05 2.04,16.97 0.18,25.02l-1.16 -0.27c1.81,-7.84 -0.2,-24.56 -0.2,-24.61l1.19 -0.14z"/>
   <path class="fil5" d="M563.65 169.24c11.92,-6.58 20.07,-7.75 19.04,-29.03 -0.16,-3.34 -0.29,-7.17 -0.4,-11.28 -10.24,4.83 -23.03,15.85 -18.64,40.31z"/>
   <path class="fil17" d="M567.04 49.8c0.01,0.05 2.04,17.31 0.18,25.52l-1.16 -0.26c1.81,-8.01 -0.2,-25.07 -0.2,-25.12l1.19 -0.14z"/>
   <path class="fil17" d="M561.5 49.98c0.01,0.05 2.04,17.33 0.18,25.55l-1.16 -0.26c1.81,-8.02 -0.2,-25.11 -0.2,-25.15l1.19 -0.14z"/>
   <polygon class="fil15" points="542.15,95.5 546.66,82.05 550.28,95.5 "/>
   <polygon class="fil15" points="550.01,95.5 554.52,82.05 558.14,95.5 "/>
   <polygon class="fil15" points="557.95,95.5 562.46,82.05 566.08,95.5 "/>
   <polygon class="fil15" points="565.81,95.5 570.32,82.05 573.94,95.5 "/>
   <polygon class="fil15" points="573.69,95.5 578.2,82.05 581.83,95.5 "/>
  </g>
  <g id="_1318311400528">
   <path class="fil18" d="M356.32 424.16l0.21 15.7 32.59 1.18 0.3 -7.12c0,0 9.18,-0.17 24.23,6.86 15.05,7.03 53.03,1.95 53.83,0.72 0.79,-1.23 0.11,-5.84 0.11,-5.84l-35.28 -0.17 -41.95 -11.17 -30.78 -2.04 -3.26 1.88z"/>
   <path class="fil19" d="M401.62 243.42c0,0 -36.44,-1.89 -54.23,12.43 0,0 -5.45,27.71 3.43,61.47 8.88,33.76 12.81,48.64 8.11,66.71 -4.7,18.07 -7.45,30.48 -2.62,40.13 0,0 31.89,2.38 43.94,5.42 12.05,3.04 21.55,8.4 36.77,8.77 15.22,0.37 30.56,-2.68 30.56,-2.68 0,0 1.27,-12.51 -12.7,-16 -13.97,-3.49 -22.2,-6.93 -30.6,-15.45 -8.4,-8.52 -19.18,-20.05 -20.84,-37.95 -1.67,-17.9 -1.82,-122.84 -1.82,-122.84z"/>
   <path class="fil20" d="M357.52 389.56c-3.78,15.13 -5.52,25.96 -1.21,34.6 0,0 12.09,0.9 24.2,2.3 0.82,-21.75 -12.67,-32.15 -22.99,-36.9z"/>
   <path class="fil20" d="M411.85 433.15c7.49,2.51 15.07,4.95 25.18,5.19 15.22,0.37 30.56,-2.68 30.56,-2.68 0,0 1.27,-12.51 -12.7,-16 -13.97,-3.49 -22.2,-6.93 -30.6,-15.45 -7.58,-7.69 -17.1,-17.84 -20.11,-32.91l-0 -0c0,0 -12.76,5.84 -4.45,19.79 7.58,12.72 17.74,26.73 12.12,42.05z"/>
   <path class="fil21" d="M401.68 260.06c-0.11,-0 -38.95,-0.34 -56.31,12.03l0.88 1.24c16.96,-12.08 55.31,-11.75 55.42,-11.75l0.01 -1.52z"/>
  </g>
  <g id="_1318311403984">
   <polygon class="fil20" points="508.93,271.75 546.64,263.59 558.27,308.74 552.66,330.23 531.21,335.8 519.04,316.74 "/>
   <path class="fil18" d="M583.56 337.11l6.26 19.15 -42.68 14.13 -2.77 -7.53c0,0 -9.69,4.14 -19.26,13.32 -9.57,9.18 -43.23,17.93 -50.46,18.81 -7.24,0.88 -16.24,2.01 -17.42,-1.25 -1.19,-3.26 -2.23,-10.31 -2.23,-10.31l36.38 -9.42 53.25 -25.39 32.9 -13.04 6.04 1.54z"/>
   <path class="fil19" d="M553.67 257.44c0,0 -12.96,-0.81 -10.42,10.65 2.54,11.46 9.89,38.84 9.99,47.83 0.11,8.98 -6.56,14.39 -12.77,15.29 -6.21,0.9 -13.55,-2.4 -16.16,-14.23 -2.62,-11.83 -10.57,-43.61 -13.85,-48.04 -3.28,-4.43 -13.06,0.55 -13.27,2.51 -0.21,1.97 9.61,27.76 5.71,42.59 -3.89,14.83 -15.25,26.16 -30.2,37.83 -14.95,11.67 -20.79,19.75 -17.72,31.55 0,0 32.19,-1.2 55.6,-14.49 23.41,-13.29 72.97,-31.83 72.97,-31.83 0,0 -2.52,-16.32 -13.21,-31.63 -10.69,-15.3 -13.59,-27 -16.68,-48.05z"/>
   <path class="fil20" d="M558 347.16c14.31,-5.84 25.56,-10.05 25.56,-10.05 0,0 -2.52,-16.32 -13.21,-31.63 -1.3,-1.87 -2.49,-3.68 -3.58,-5.46 -5.62,10.53 -13.11,29.03 -8.77,47.14z"/>
   <polygon class="fil21" points="527,267.84 540.62,331.21 542.18,330.87 528.56,267.5 "/>
  </g>
  <g id="_1318311402880">
   <path class="fil18" d="M280.67 454.73l0.21 15.7 32.59 1.18 0.3 -7.12c0,0 9.18,-0.17 24.23,6.86 15.05,7.03 53.03,1.95 53.83,0.72 0.79,-1.23 0.11,-5.84 0.11,-5.84l-35.28 -0.17 -41.95 -11.17 -30.78 -2.04 -3.26 1.88z"/>
   <path class="fil19" d="M325.97 273.99c0,0 -36.44,-1.89 -54.23,12.43 0,0 -5.45,27.71 3.43,61.47 8.88,33.76 12.81,48.64 8.11,66.71 -4.7,18.07 -7.45,30.48 -2.62,40.13 0,0 31.89,2.38 43.94,5.42 12.05,3.04 21.55,8.4 36.77,8.77 15.22,0.37 30.56,-2.68 30.56,-2.68 0,0 1.27,-12.51 -12.7,-16 -13.97,-3.49 -22.2,-6.93 -30.6,-15.45 -8.4,-8.52 -19.18,-20.05 -20.84,-37.95 -1.67,-17.9 -1.82,-122.84 -1.82,-122.84z"/>
   <path class="fil20" d="M281.88 420.13c-3.78,15.13 -5.52,25.96 -1.21,34.6 0,0 12.09,0.9 24.2,2.3 0.82,-21.75 -12.67,-32.15 -22.99,-36.9z"/>
   <path class="fil20" d="M336.2 463.72c7.49,2.51 15.07,4.95 25.18,5.19 15.22,0.37 30.56,-2.68 30.56,-2.68 0,0 1.27,-12.51 -12.7,-16 -13.97,-3.49 -22.2,-6.93 -30.6,-15.45 -7.58,-7.69 -17.1,-17.84 -20.11,-32.91l-0 -0c0,0 -12.76,5.84 -4.45,19.79 7.58,12.72 17.74,26.73 12.12,42.05z"/>
   <path class="fil21" d="M326.03 290.63c-0.11,-0 -38.95,-0.34 -56.31,12.03l0.88 1.24c16.96,-12.08 55.31,-11.75 55.42,-11.75l0.01 -1.52z"/>
  </g>
  <g id="_1318311404992">
   <polygon class="fil20" points="612.75,333.02 651.06,337.49 647.48,383.98 635.22,402.49 613.13,400.83 607.77,378.87 "/>
   <path class="fil18" d="M662.24 419l-0.27 20.14 -44.96 -0.43 -0.19 -8.02c0,0 -10.51,0.79 -22.53,6.38 -12.03,5.59 -46.7,3 -53.83,1.49 -7.13,-1.51 -16.01,-3.34 -16.08,-6.81 -0.07,-3.47 1.22,-10.48 1.22,-10.48l37.48 2.84 58.6 -6.82 35.34 -1.71 5.22 3.41z"/>
   <path class="fil19" d="M659.7 333.94c0,0 -12,-4.96 -13.3,6.71 -1.3,11.67 -3.2,39.95 -6,48.49 -2.8,8.54 -10.86,11.5 -17.02,10.35 -6.17,-1.16 -12.04,-6.65 -10.69,-18.69 1.35,-12.04 4.09,-44.68 2.42,-49.94 -1.67,-5.25 -12.54,-3.7 -13.37,-1.91 -0.84,1.79 0.12,29.38 -8.36,42.15 -8.48,12.78 -22.89,19.83 -40.8,26.04 -17.91,6.21 -26.06,11.98 -26.97,24.13 0,0 30.85,9.27 57.3,4.26 26.45,-5.02 79.34,-6.54 79.34,-6.54 0,0 2.89,-16.26 -2.28,-34.2 -5.17,-17.94 -4.13,-29.94 -0.26,-50.86z"/>
   <path class="fil20" d="M634.81 420.25c15.43,-0.9 27.44,-1.25 27.44,-1.25 0,0 2.89,-16.26 -2.28,-34.2 -0.63,-2.19 -1.17,-4.29 -1.62,-6.33 -8.72,8.15 -21.79,23.24 -23.54,41.77z"/>
   <polygon class="fil21" points="631.11,335.16 623.51,399.53 625.1,399.72 632.69,335.35 "/>
  </g>
  <g id="_1318311402688">
   <path class="fil14" d="M604.81 73.97c0,0 1.58,54.51 -0.73,61.71 -2.32,7.2 -41.28,39.06 -44.29,54.93 -3,15.87 8.15,23.59 25.52,18.87 17.37,-4.72 26.81,-31.74 39.68,-39.25 12.87,-7.51 21.88,-7.72 20.8,-30.03 -1.07,-22.31 -0.86,-66.83 -0.86,-66.83l-40.12 0.59z"/>
   <path class="fil15" d="M605.25 95.3c0.02,1.34 0.03,2.71 0.04,4.1l39.68 0c-0.01,-1.39 -0.02,-2.76 -0.02,-4.1l-39.7 0z"/>
   <path class="fil5" d="M605.31 101.6c0.01,1.29 0.02,2.59 0.02,3.89l39.68 0c-0.01,-1.31 -0.02,-2.61 -0.03,-3.89l-39.67 0z"/>
   <path class="fil5" d="M604.92 78.16c0.03,1.12 0.06,2.43 0.09,3.89l39.91 0c0,-1.45 0,-2.76 0,-3.89l-40 0z"/>
   <path class="fil15" d="M647.17 74.3c1.46,-1.3 1.22,-20.91 -1,-22.97 -2.22,-2.06 -39.87,-1.35 -42.56,0 -2.69,1.35 -1.75,21.52 -1.42,22.93 0.35,1.49 43.53,1.34 44.99,0.04z"/>
   <path class="fil16" d="M611.36 105.48c0,0.08 0.42,26.96 -2.29,32.96 -1.43,3.16 -10.05,12.5 -19.09,22.29 -8.17,8.85 -16.69,18.08 -20.46,23.34l-0.85 -0.61c3.8,-5.3 12.34,-14.56 20.54,-23.44 8.98,-9.73 17.54,-19 18.91,-22.01 2.62,-5.79 2.2,-32.44 2.2,-32.52l1.04 -0.01z"/>
   <path class="fil16" d="M617.86 105.49c-0,0.08 -0.11,29.17 -2.97,35.25 -2.84,6.05 -38.71,44.86 -38.82,44.97l-0.77 -0.71c0.1,-0.11 35.87,-38.8 38.64,-44.7 2.76,-5.87 2.87,-34.73 2.87,-34.81l1.04 0z"/>
   <path class="fil16" d="M624.3 105.5c-0,0.09 -0.4,29.59 -3.93,36.53 -3.5,6.89 -37.38,46.81 -37.48,46.92l-0.8 -0.67c0.1,-0.11 33.89,-39.94 37.34,-46.72 3.42,-6.73 3.82,-35.99 3.82,-36.07l1.04 0.01z"/>
   <path class="fil16" d="M588.03 191.12c0.1,-0.13 36.16,-45.26 37.32,-49.5 1.17,-4.28 3.66,-36.08 3.66,-36.17l1.04 0.08c-0.01,0.09 -2.5,31.97 -3.7,36.37 -1.21,4.44 -37.41,49.75 -37.51,49.88l-0.81 -0.65z"/>
   <polygon class="fil16" points="635.71,105.53 633.27,139.56 632.22,139.49 634.67,105.45 "/>
   <polygon class="fil16" points="592.57,194.64 626.69,152.93 627.5,153.59 593.38,195.31 "/>
   <polygon class="fil16" points="640.92,105.51 639.72,133.52 638.68,133.48 639.88,105.47 "/>
   <path class="fil16" d="M626.3 164.74c-0.02,0.01 -5.44,2.34 -29.69,35.26l-0.84 -0.62c24.4,-33.14 30.07,-35.58 30.09,-35.59l0.45 0.94z"/>
   <path class="fil17" d="M607.29 50.87c-0.01,0.05 -2.01,16.3 -0.2,23.93l-1.16 0.28c-1.86,-7.84 0.18,-24.3 0.18,-24.35l1.19 0.14z"/>
   <path class="fil5" d="M563.43 182.37c-1.87,3.02 -3.17,5.82 -3.63,8.24 -3,15.87 8.15,23.59 25.52,18.87 5.01,-1.36 9.36,-4.58 13.33,-8.65 -8.8,-13.41 -23.76,-17.48 -35.22,-18.46z"/>
   <path class="fil17" d="M613.62 50.46c-0.01,0.05 -2.02,16.58 -0.2,24.34l-1.16 0.27c-1.86,-7.96 0.18,-24.7 0.18,-24.75l1.19 0.14z"/>
   <path class="fil17" d="M620.56 50.21c-0.01,0.05 -2.02,16.92 -0.2,24.84l-1.16 0.27c-1.86,-8.12 0.18,-25.2 0.18,-25.25l1.19 0.14z"/>
   <path class="fil17" d="M643.41 50.45c0.01,0.05 2.04,16.69 0.18,24.61l-1.16 -0.27c1.81,-7.71 -0.2,-24.15 -0.2,-24.2l1.19 -0.14z"/>
   <path class="fil17" d="M637.08 50.05c0.01,0.05 2.04,16.97 0.18,25.02l-1.16 -0.27c1.81,-7.84 -0.2,-24.56 -0.2,-24.61l1.19 -0.14z"/>
   <path class="fil5" d="M626.75 169.24c11.92,-6.58 20.07,-7.75 19.04,-29.03 -0.16,-3.34 -0.29,-7.17 -0.4,-11.28 -10.24,4.83 -23.03,15.85 -18.64,40.31z"/>
   <path class="fil17" d="M630.14 49.8c0.01,0.05 2.04,17.31 0.18,25.52l-1.16 -0.26c1.81,-8.01 -0.2,-25.07 -0.2,-25.12l1.19 -0.14z"/>
   <path class="fil17" d="M624.61 49.98c0.01,0.05 2.04,17.33 0.18,25.55l-1.16 -0.26c1.81,-8.02 -0.2,-25.11 -0.2,-25.15l1.19 -0.14z"/>
   <polygon class="fil15" points="605.25,95.5 609.76,82.05 613.38,95.5 "/>
   <polygon class="fil15" points="613.11,95.5 617.62,82.05 621.24,95.5 "/>
   <polygon class="fil15" points="621.05,95.5 625.56,82.05 629.18,95.5 "/>
   <polygon class="fil15" points="628.91,95.5 633.42,82.05 637.04,95.5 "/>
   <polygon class="fil15" points="636.8,95.5 641.31,82.05 644.93,95.5 "/>
  </g>
  <g id="_1318311407344">
   <path class="fil22" d="M465.13 47.63c0,0 -7.86,4.57 -6.26,16.12 1.59,11.54 3.85,15.07 6.71,14.96 2.86,-0.12 5.2,-7.65 5.2,-7.65 0,0 2.53,21.74 24.95,26.3 0,0 5.83,-18.62 -10.39,-35.08 0,0 7.25,1.07 7.83,-3.06 0.58,-4.13 -16.94,-20.2 -28.05,-11.58z"/>
   <path class="fil23" d="M493.57 94.94c0.12,0.21 0.38,0.29 0.59,0.17 0.21,-0.12 0.29,-0.38 0.17,-0.59 -0.08,-0.14 -27.89,-50.18 -36.62,-57.03 -0.19,-0.15 -0.46,-0.12 -0.61,0.07 -0.15,0.19 -0.12,0.46 0.07,0.61 8.59,6.74 36.32,56.62 36.4,56.76z"/>
   <path class="fil23" d="M485.69 90.94c-0.01,0.24 0.19,0.44 0.43,0.45 0.24,0.01 0.44,-0.19 0.45,-0.43 0,-0.02 0.13,-5.65 0.74,-8.56 0.05,-0.24 -0.1,-0.47 -0.34,-0.52 -0.24,-0.05 -0.47,0.1 -0.52,0.34 -0.63,2.98 -0.76,8.7 -0.76,8.71z"/>
   <path class="fil23" d="M483.2 75.52c-0.24,-0.02 -0.45,0.17 -0.46,0.41 -0.02,0.24 0.17,0.45 0.41,0.46 0.02,0 6.27,0.4 9.15,1.9 0.21,0.11 0.48,0.03 0.59,-0.18 0.11,-0.21 0.03,-0.48 -0.18,-0.59 -3.05,-1.59 -9.48,-2 -9.5,-2z"/>
   <path class="fil23" d="M476.92 79.18c-0.05,0.23 0.09,0.47 0.33,0.52 0.23,0.05 0.47,-0.09 0.52,-0.33 0,-0.02 1.34,-5.61 2.64,-8.6 0.1,-0.22 -0,-0.48 -0.23,-0.57 -0.22,-0.1 -0.48,0 -0.57,0.23 -1.33,3.06 -2.68,8.73 -2.69,8.75z"/>
   <path class="fil23" d="M476.67 64.58c-0.24,-0.02 -0.45,0.16 -0.47,0.39 -0.02,0.24 0.16,0.45 0.39,0.47 0.02,0 6.76,0.61 9.54,1.63 0.23,0.08 0.48,-0.03 0.56,-0.26 0.08,-0.23 -0.03,-0.48 -0.26,-0.56 -2.87,-1.06 -9.74,-1.68 -9.76,-1.68z"/>
   <path class="fil23" d="M468.33 66.83c-0.04,0.24 0.12,0.46 0.36,0.5 0.24,0.04 0.46,-0.12 0.5,-0.36 0,-0.02 1.2,-7.22 2.87,-9.62 0.14,-0.2 0.09,-0.47 -0.11,-0.61 -0.2,-0.14 -0.47,-0.09 -0.61,0.11 -1.78,2.55 -3.01,9.95 -3.01,9.97z"/>
   <path class="fil23" d="M462.18 67.32c-0.06,0.23 0.09,0.47 0.32,0.53 0.23,0.06 0.47,-0.09 0.53,-0.32 0.01,-0.04 3.13,-13.27 5.19,-16.08 0.14,-0.19 0.1,-0.47 -0.09,-0.61 -0.19,-0.14 -0.47,-0.1 -0.61,0.09 -2.17,2.96 -5.32,16.36 -5.33,16.4z"/>
   <path class="fil23" d="M482.09 52c0.24,0.05 0.47,-0.1 0.52,-0.33 0.05,-0.24 -0.1,-0.47 -0.33,-0.52 -0.03,-0.01 -9.29,-2.03 -14.55,-0.39 -0.23,0.07 -0.36,0.32 -0.29,0.55 0.07,0.23 0.32,0.36 0.55,0.29 5.03,-1.57 14.08,0.4 14.1,0.41z"/>
  </g>
  <g id="_1318311350704">
   <path class="fil22" d="M47.27 359.76c0,0 8.87,-1.74 11.12,-13.1 2.25,-11.36 1.28,-15.4 -1.44,-16.22 -2.73,-0.82 -7.37,5.5 -7.37,5.5 0,0 4.69,-21.23 -14.88,-32.8 0,0 -11.52,15.59 -1.65,36.31 0,0 -6.46,-3.36 -8.35,0.32 -1.89,3.69 9.34,24.47 22.57,19.98z"/>
   <path class="fil23" d="M35.95 306.09c-0.04,-0.24 -0.27,-0.39 -0.5,-0.35 -0.24,0.04 -0.39,0.27 -0.35,0.5 0.03,0.16 9.88,56.17 15.84,65.44 0.13,0.2 0.4,0.26 0.6,0.13 0.2,-0.13 0.26,-0.4 0.13,-0.6 -5.88,-9.12 -15.69,-64.96 -15.72,-65.12z"/>
   <path class="fil23" d="M42.03 312.41c0.08,-0.22 -0.03,-0.47 -0.25,-0.56 -0.22,-0.08 -0.47,0.03 -0.56,0.25 -0.01,0.02 -1.96,5.26 -3.48,7.79 -0.12,0.21 -0.06,0.47 0.15,0.59 0.21,0.12 0.47,0.06 0.59,-0.15 1.56,-2.59 3.54,-7.92 3.55,-7.93z"/>
   <path class="fil23" d="M39.36 327.7c0.22,0.09 0.48,-0.01 0.57,-0.23 0.09,-0.22 -0.01,-0.48 -0.23,-0.57 -0.02,-0.01 -5.76,-2.41 -7.97,-4.76 -0.16,-0.17 -0.44,-0.18 -0.61,-0.02 -0.17,0.16 -0.18,0.44 -0.02,0.61 2.34,2.49 8.25,4.96 8.27,4.96z"/>
   <path class="fil23" d="M46.45 326.3c0.13,-0.2 0.07,-0.47 -0.14,-0.6 -0.2,-0.13 -0.47,-0.07 -0.6,0.14 -0.01,0.01 -3.08,4.83 -5.27,7.21 -0.16,0.18 -0.15,0.45 0.03,0.61 0.18,0.16 0.45,0.15 0.61,-0.03 2.24,-2.44 5.36,-7.32 5.36,-7.34z"/>
   <path class="fil23" d="M41.94 340.09c0.22,0.1 0.47,0 0.57,-0.22 0.1,-0.22 0,-0.47 -0.22,-0.57 -0.02,-0.01 -6.15,-2.77 -8.42,-4.63 -0.19,-0.15 -0.46,-0.12 -0.61,0.06 -0.15,0.19 -0.12,0.46 0.06,0.61 2.35,1.92 8.6,4.74 8.62,4.75z"/>
   <path class="fil23" d="M50.5 340.69c0.11,-0.21 0.04,-0.47 -0.17,-0.59 -0.21,-0.11 -0.47,-0.04 -0.59,0.17 -0.01,0.02 -3.48,6.39 -5.82,8.1 -0.19,0.14 -0.24,0.41 -0.09,0.61 0.14,0.19 0.41,0.24 0.61,0.1 2.5,-1.82 6.06,-8.37 6.07,-8.38z"/>
   <path class="fil23" d="M56.44 342.23c0.13,-0.2 0.07,-0.47 -0.13,-0.6 -0.2,-0.13 -0.47,-0.07 -0.6,0.13 -0.02,0.03 -7.25,11.44 -10.1,13.41 -0.2,0.14 -0.25,0.41 -0.11,0.6 0.14,0.2 0.41,0.25 0.6,0.11 3,-2.08 10.31,-13.63 10.34,-13.66z"/>
   <path class="fil23" d="M32.76 350.13c-0.2,-0.12 -0.47,-0.06 -0.6,0.15 -0.12,0.2 -0.06,0.47 0.15,0.6 0.02,0.01 8.06,4.92 13.53,5.09 0.24,0.01 0.44,-0.18 0.45,-0.42 0.01,-0.24 -0.18,-0.44 -0.42,-0.45 -5.24,-0.16 -13.08,-4.95 -13.11,-4.96z"/>
  </g>
  <g id="_1318311355840">
   <path class="fil24" d="M613 280.67c0,0 -19.92,-2.34 -22.4,-13.68 0,0 1.95,-1.06 4.34,-1.15 0,0 -7.42,-4.83 -6.11,-16.05 0,0 9.48,1.31 15.91,6.76 0,0 -5.23,-11.34 -5.12,-17.55 0,0 3.16,0 4.36,1.53 0,0 -0.14,-9.75 5.1,-16.94 0,0 6.43,9.05 6.87,13.19 0,0 1.85,-1.94 3.38,-2.88 0,0 2.33,10.21 0.07,21.29 0,0 1.9,3.86 4.16,-13.12 2.26,-16.99 9.84,-17.79 9.84,-17.79 0,0 2.77,3.21 3.13,7.36 0,0 13.18,-12.07 21.14,-12.61 0,0 -0.22,14.93 -6.1,22.78 0,0 5.45,-0.76 9.59,0.55 0,0 -4.25,11.12 -13.73,14.17 -9.48,3.05 -10.9,7.85 -10.57,8.72 0.33,0.87 12.21,-6.21 19.62,-5.67 0,0 0,2.83 -1.53,3.71 0,0 7.16,-1.09 14.37,2.04 0,0 -5.69,7.49 -11.47,8.63 0,0 2.13,1.82 2.91,3.47 0,0 -8.45,5.15 -18.11,2.14 0,0 9.36,8.73 9.18,12.55 0,0 -8.01,2.79 -14.43,0.74 0,0 0.56,2.23 0.09,4.19 0,0 -12.66,-0.19 -24.46,-16.36z"/>
   <g>
    <polygon class="fil21" points="655.39,221.86 604.79,293.17 604.07,292.66 654.67,221.35 "/>
    <path class="fil21" d="M592.29 253.82c0.03,0.04 11.94,15.29 23.44,23.16l-0.5 0.73c-11.61,-7.95 -23.6,-23.31 -23.64,-23.35l0.7 -0.55z"/>
    <path class="fil21" d="M609.8 227.96c0.01,0.11 4.83,37.57 4.16,48.01l-0.89 -0.06c0.66,-10.37 -4.14,-47.74 -4.16,-47.85l0.88 -0.11z"/>
    <path class="fil21" d="M606.04 238.15c0.01,0.02 3.64,5.63 5.66,7.17l-0.54 0.71c-2.14,-1.64 -5.86,-7.38 -5.87,-7.4l0.74 -0.48z"/>
    <path class="fil21" d="M616.33 239.84c-0.01,0.02 -2.01,8.13 -4.04,10.8l-0.71 -0.54c1.92,-2.53 3.88,-10.45 3.89,-10.47l0.86 0.21z"/>
    <path class="fil21" d="M646.25 290.23c-0.07,-0.02 -24.36,-8.08 -31.02,-12.51l0.49 -0.74c6.58,4.37 30.74,12.39 30.81,12.41l-0.28 0.84z"/>
    <path class="fil21" d="M618.97 278.91c0.12,-0.03 40.5,-11.33 46.33,-13.07l0.25 0.85c-5.81,1.74 -46.23,13.04 -46.34,13.07l-0.24 -0.86z"/>
    <path class="fil21" d="M650.29 265.16c-0.01,0.01 -4.14,4.75 -6.36,7.57l-0.7 -0.55c2.24,-2.85 6.38,-7.6 6.39,-7.61l0.67 0.59z"/>
    <path class="fil21" d="M655.36 246.39c-0.05,0.02 -16.24,7.61 -23.42,8.24l-0.08 -0.89c7.03,-0.62 23.08,-8.14 23.12,-8.16l0.38 0.8z"/>
    <path class="fil21" d="M632.28 231.61c-0,0.05 -0.92,15.94 0.06,22.52l-0.88 0.13c-0.99,-6.66 -0.07,-22.65 -0.07,-22.69l0.89 0.05z"/>
   </g>
  </g>
  <g id="_1318311354016">
   <path class="fil24" d="M314.66 110.06c0,0 -12.6,15.61 -23.51,11.67 0,0 0.14,-2.21 1.34,-4.29 0,0 -8.04,3.71 -16.84,-3.38 0,0 6.16,-7.33 14.2,-9.87 0,0 -12.38,-1.61 -17.58,-5.02 0,0 1.68,-2.67 3.61,-2.88 0,0 -8.32,-5.08 -11.62,-13.34 0,0 11.08,-0.62 14.82,1.22 0,0 -0.65,-2.6 -0.64,-4.4 0,0 9.88,3.46 18.05,11.28 0,0 4.28,0.46 -8.89,-10.51 -13.17,-10.96 -9.81,-17.81 -9.81,-17.81 0,0 4.19,-0.63 7.9,1.27 0,0 -3.19,-17.58 0.59,-24.61 0,0 12.52,8.14 16.03,17.3 0,0 2.26,-5.02 5.57,-7.83 0,0 7.14,9.52 4.67,19.17 -2.47,9.65 0.83,13.41 1.75,13.59 0.91,0.19 1.25,-13.64 5.66,-19.62 0,0 2.4,1.51 2.32,3.27 0,0 2.89,-6.64 9.38,-11.07 0,0 3.31,8.8 1.19,14.3 0,0 2.68,-0.83 4.49,-0.61 0,0 -0.15,9.89 -7.84,16.47 0,0 12.38,-3.27 15.51,-1.08 0,0 -1.9,8.27 -7.06,12.61 0,0 2.19,0.72 3.6,2.15 0,0 -6.91,10.62 -26.88,11.99z"/>
   <g>
    <polygon class="fil21" points="287.48,42.85 320.86,123.67 320.04,124 286.66,43.19 "/>
    <path class="fil21" d="M280.9 113.28c0.06,-0.01 19.3,-1.96 32.09,-7.49l0.35 0.81c-12.91,5.59 -32.3,7.55 -32.35,7.56l-0.09 -0.88z"/>
    <path class="fil21" d="M268.35 84.68c0.1,0.05 34.36,15.93 42.85,22.06l-0.52 0.72c-8.42,-6.09 -42.61,-21.93 -42.7,-21.98l0.37 -0.8z"/>
    <path class="fil21" d="M274.96 93.29c0.02,-0 6.7,-0.08 9.09,-0.97l0.31 0.83c-2.53,0.94 -9.37,1.02 -9.39,1.02l-0.01 -0.89z"/>
    <path class="fil21" d="M281.88 85.49c0.02,0.02 5.81,6.03 6.98,9.18l-0.83 0.31c-1.11,-2.97 -6.78,-8.85 -6.79,-8.87l0.64 -0.62z"/>
    <path class="fil21" d="M340.47 87.01c-0.06,0.05 -19.82,16.3 -27.12,19.59l-0.37 -0.81c7.2,-3.24 26.86,-19.41 26.92,-19.46l0.56 0.68z"/>
    <path class="fil21" d="M316.34 104.07c0.03,-0.12 11.99,-40.31 13.63,-46.17l0.86 0.24c-1.63,5.84 -13.6,46.07 -13.63,46.18l-0.85 -0.25z"/>
    <path class="fil21" d="M321.4 70.24c0.01,0.02 1.81,6.03 3.02,9.41l-0.84 0.3c-1.22,-3.41 -3.03,-9.44 -3.04,-9.46l0.85 -0.25z"/>
    <path class="fil21" d="M308.23 55.95c-0.01,0.05 -2.21,17.8 -5.5,24.21l-0.79 -0.41c3.22,-6.28 5.41,-23.87 5.42,-23.92l0.88 0.11z"/>
    <path class="fil21" d="M283.42 67.61c0.04,0.03 13,9.27 19.09,11.95l-0.36 0.81c-6.17,-2.71 -19.2,-12.01 -19.24,-12.03l0.51 -0.72z"/>
   </g>
  </g>
  <g id="_1318311353440">
   <path class="fil24" d="M211.49 262.94c0,0 -16.49,1.25 -18.91,10.5 0,0 1.57,0.94 3.53,1.1 0,0 -6.28,3.72 -5.58,13.02 0,0 7.85,-0.76 13.34,-5.03 0,0 -4.69,9.16 -4.81,14.28 0,0 2.6,0.11 3.64,-1.11 0,0 -0.44,8.03 3.62,14.13 0,0 5.6,-7.23 6.1,-10.63 0,0 1.46,1.66 2.69,2.49 0,0 2.27,-8.33 0.78,-17.53 0,0 1.69,-3.12 2.98,10.95 1.28,14.07 7.5,14.99 7.5,14.99 0,0 2.39,-2.55 2.83,-5.96 0,0 10.44,10.38 16.98,11.1 0,0 0.33,-12.31 -4.25,-18.97 0,0 4.46,0.81 7.92,-0.12 0,0 -3.12,-9.3 -10.83,-12.14 -7.71,-2.84 -8.71,-6.83 -8.41,-7.54 0.3,-0.71 9.84,5.53 15.97,5.33 0,0 0.1,-2.33 -1.13,-3.1 0,0 5.86,1.14 11.9,-1.19 0,0 -4.43,-6.36 -9.15,-7.49 0,0 1.82,-1.43 2.51,-2.76 0,0 -6.78,-4.53 -14.85,-2.37 0,0 8.01,-6.87 7.99,-10.02 0,0 -6.5,-2.57 -11.86,-1.1 0,0 0.54,-1.82 0.22,-3.45 0,0 -10.44,-0.28 -20.7,12.64z"/>
   <g>
    <polygon class="fil21" points="244.4,312.82 205.15,252.36 204.54,252.76 243.79,313.21 "/>
    <path class="fil21" d="M193.52 284.35c0.03,-0.04 10.35,-12.19 20.09,-18.28l-0.39 -0.62c-9.83,6.16 -20.23,18.39 -20.26,18.43l0.56 0.47z"/>
    <path class="fil21" d="M207.06 306.24c0.02,-0.09 5.26,-30.78 5.06,-39.4l-0.73 0.02c0.19,8.56 -5.03,39.18 -5.05,39.27l0.72 0.12z"/>
    <path class="fil21" d="M204.31 297.73c0.01,-0.01 3.19,-4.51 4.91,-5.72l-0.42 -0.6c-1.82,1.28 -5.07,5.88 -5.08,5.89l0.6 0.42z"/>
    <path class="fil21" d="M212.84 296.68c-0,-0.02 -1.38,-6.76 -2.96,-9.03l-0.6 0.42c1.5,2.14 2.84,8.74 2.85,8.76l0.72 -0.15z"/>
    <path class="fil21" d="M239.2 256.19c-0.06,0.02 -20.33,5.83 -25.98,9.25l0.38 0.63c5.56,-3.37 25.74,-9.16 25.8,-9.18l-0.2 -0.7z"/>
    <path class="fil21" d="M216.34 264.6c0.09,0.03 32.97,10.71 37.71,12.34l0.24 -0.69c-4.73,-1.63 -37.63,-12.31 -37.73,-12.34l-0.23 0.7z"/>
    <path class="fil21" d="M241.67 276.98c-0.01,-0.01 -3.25,-4.05 -4.98,-6.45l-0.59 0.43c1.75,2.42 4.99,6.47 5,6.48l0.57 -0.46z"/>
    <path class="fil21" d="M245.22 292.61c-0.04,-0.02 -13.12,-6.82 -19.01,-7.59l-0.09 0.73c5.77,0.75 18.73,7.49 18.77,7.51l0.34 -0.65z"/>
    <path class="fil21" d="M225.7 304c-0,-0.04 -0.21,-13.16 0.82,-18.54l-0.72 -0.14c-1.04,5.45 -0.83,18.65 -0.83,18.69l0.73 -0.01z"/>
   </g>
  </g>
  <g id="_1318308685392">
   <path class="fil22" d="M436.08 309.88c0,0 -8.46,-4.92 -6.74,-17.35 1.72,-12.42 4.14,-16.22 7.22,-16.1 3.08,0.13 5.6,8.24 5.6,8.24 0,0 2.73,-23.39 26.85,-28.3 0,0 6.27,20.04 -11.18,37.76 0,0 7.81,-1.15 8.43,3.29 0.62,4.44 -18.24,21.74 -30.19,12.46z"/>
   <path class="fil23" d="M466.69 258.95c0.13,-0.23 0.41,-0.31 0.64,-0.18 0.23,0.13 0.31,0.41 0.18,0.64 -0.09,0.15 -30.02,54 -39.41,61.37 -0.2,0.16 -0.5,0.13 -0.66,-0.08 -0.16,-0.2 -0.12,-0.5 0.08,-0.66 9.25,-7.26 39.09,-60.93 39.17,-61.09z"/>
   <path class="fil23" d="M458.22 263.27c-0.01,-0.26 0.2,-0.47 0.46,-0.48 0.26,-0.01 0.47,0.2 0.48,0.46 0,0.02 0.14,6.08 0.8,9.21 0.05,0.25 -0.11,0.5 -0.36,0.56 -0.25,0.05 -0.5,-0.11 -0.56,-0.36 -0.68,-3.21 -0.82,-9.36 -0.82,-9.38z"/>
   <path class="fil23" d="M455.53 279.86c-0.26,0.02 -0.48,-0.18 -0.5,-0.44 -0.02,-0.26 0.18,-0.48 0.44,-0.5 0.02,-0 6.75,-0.43 9.85,-2.04 0.23,-0.12 0.51,-0.03 0.63,0.2 0.12,0.23 0.03,0.51 -0.2,0.63 -3.28,1.71 -10.2,2.15 -10.22,2.15z"/>
   <path class="fil23" d="M448.78 275.91c-0.06,-0.25 0.1,-0.51 0.35,-0.56 0.25,-0.06 0.51,0.1 0.56,0.35 0,0.02 1.44,6.04 2.84,9.25 0.1,0.24 -0,0.51 -0.24,0.62 -0.24,0.1 -0.51,-0.01 -0.62,-0.24 -1.43,-3.29 -2.89,-9.4 -2.89,-9.41z"/>
   <path class="fil23" d="M448.5 291.63c-0.26,0.02 -0.49,-0.17 -0.51,-0.42 -0.02,-0.26 0.17,-0.49 0.42,-0.51 0.02,-0 7.28,-0.66 10.26,-1.75 0.24,-0.09 0.51,0.04 0.6,0.28 0.09,0.24 -0.04,0.51 -0.28,0.6 -3.09,1.14 -10.48,1.8 -10.5,1.8z"/>
   <path class="fil23" d="M439.53 289.21c-0.04,-0.26 0.13,-0.5 0.39,-0.54 0.26,-0.04 0.5,0.13 0.54,0.39 0,0.02 1.3,7.78 3.09,10.35 0.15,0.21 0.1,0.51 -0.12,0.65 -0.21,0.15 -0.51,0.1 -0.65,-0.12 -1.91,-2.75 -3.24,-10.71 -3.24,-10.73z"/>
   <path class="fil23" d="M432.91 288.69c-0.06,-0.25 0.1,-0.51 0.35,-0.57 0.25,-0.06 0.51,0.1 0.57,0.35 0.01,0.04 3.37,14.28 5.58,17.31 0.15,0.21 0.11,0.5 -0.1,0.66 -0.21,0.15 -0.5,0.11 -0.66,-0.1 -2.33,-3.19 -5.73,-17.6 -5.74,-17.64z"/>
   <path class="fil23" d="M454.34 305.17c0.25,-0.05 0.5,0.11 0.56,0.36 0.05,0.25 -0.11,0.5 -0.36,0.56 -0.03,0.01 -10,2.18 -15.66,0.42 -0.25,-0.08 -0.39,-0.34 -0.31,-0.59 0.08,-0.25 0.34,-0.39 0.59,-0.31 5.42,1.69 15.15,-0.43 15.18,-0.44z"/>
  </g>
  <g id="_1318308685200">
   <path class="fil22" d="M471.58 471.17c0,0 -2.2,-9.25 7.7,-16.36 9.9,-7.11 14.19,-7.95 16.17,-5.69 1.97,2.25 -2.05,9.46 -2.05,9.46 0,0 18.29,-13.75 37.9,-0.05 0,0 -9.9,17.83 -34.06,17.42 0,0 6.04,4.72 3.33,8.14 -2.71,3.41 -27.52,1.73 -28.98,-12.9z"/>
   <path class="fil23" d="M527.93 458.61c0.24,-0.06 0.49,0.08 0.56,0.33 0.06,0.24 -0.08,0.49 -0.33,0.56 -0.17,0.04 -58.11,15.04 -69.59,13.36 -0.25,-0.04 -0.42,-0.27 -0.39,-0.52 0.04,-0.25 0.27,-0.42 0.52,-0.39 11.3,1.65 69.07,-13.3 69.23,-13.34z"/>
   <path class="fil23" d="M519.21 455.54c0.18,-0.18 0.47,-0.18 0.64,0 0.18,0.18 0.18,0.47 -0,0.64 -0.01,0.01 -4.18,4.17 -5.95,6.73 -0.14,0.21 -0.43,0.26 -0.63,0.12 -0.21,-0.14 -0.26,-0.43 -0.12,-0.63 1.81,-2.62 6.04,-6.84 6.05,-6.86z"/>
   <path class="fil23" d="M505.74 464.76c-0.18,-0.17 -0.2,-0.46 -0.02,-0.65 0.17,-0.18 0.46,-0.2 0.65,-0.02 0.01,0.01 4.82,4.47 8.03,5.56 0.24,0.08 0.37,0.34 0.28,0.58 -0.08,0.24 -0.34,0.37 -0.58,0.28 -3.4,-1.16 -8.35,-5.74 -8.36,-5.75z"/>
   <path class="fil23" d="M503.99 457.36c0.14,-0.21 0.42,-0.27 0.63,-0.13 0.21,0.14 0.27,0.42 0.13,0.63 -0.01,0.01 -3.29,5.06 -4.61,8.19 -0.1,0.23 -0.37,0.34 -0.6,0.24 -0.23,-0.1 -0.34,-0.37 -0.24,-0.6 1.36,-3.21 4.68,-8.32 4.69,-8.34z"/>
   <path class="fil23" d="M492.74 467.7c-0.19,-0.17 -0.21,-0.45 -0.04,-0.64 0.17,-0.19 0.45,-0.21 0.64,-0.04 0.02,0.01 5.34,4.68 8.11,6.05 0.23,0.11 0.32,0.39 0.21,0.61 -0.11,0.23 -0.39,0.32 -0.61,0.21 -2.87,-1.42 -8.29,-6.17 -8.3,-6.18z"/>
   <path class="fil23" d="M488.44 459.76c0.15,-0.2 0.44,-0.24 0.64,-0.09 0.2,0.15 0.24,0.44 0.09,0.64 -0.01,0.02 -4.61,6.12 -5.22,9.11 -0.05,0.25 -0.29,0.41 -0.54,0.36 -0.25,-0.05 -0.41,-0.29 -0.36,-0.54 0.65,-3.19 5.37,-9.45 5.38,-9.47z"/>
   <path class="fil23" d="M484.37 454.75c0.14,-0.21 0.42,-0.27 0.63,-0.13 0.21,0.14 0.27,0.42 0.13,0.63 -0.02,0.03 -7.8,11.93 -8.44,15.52 -0.04,0.25 -0.28,0.41 -0.53,0.37 -0.25,-0.04 -0.41,-0.28 -0.37,-0.53 0.68,-3.78 8.55,-15.82 8.58,-15.86z"/>
   <path class="fil23" d="M487.13 480.87c0.21,0.14 0.26,0.43 0.12,0.63 -0.14,0.21 -0.43,0.26 -0.63,0.12 -0.02,-0.02 -8.23,-5.58 -10.78,-10.74 -0.11,-0.23 -0.02,-0.5 0.21,-0.61 0.23,-0.11 0.5,-0.02 0.61,0.21 2.44,4.95 10.45,10.37 10.47,10.39z"/>
  </g>
  <g id="_1318308690432">
   <path class="fil22" d="M39.68 71.73c0,0 6.47,5.07 15.64,-0.13 9.16,-5.2 11.38,-8.28 10.32,-10.64 -1.06,-2.37 -8.17,-1.81 -8.17,-1.81 0,0 17.41,-9.4 13.75,-29.75 0,0 -17.59,1.33 -26,20.46 0,0 -1.53,-6.45 -5.19,-5.56 -3.66,0.89 -11.31,20.99 -0.35,27.43z"/>
   <path class="fil23" d="M69.92 32.02c0.14,-0.17 0.11,-0.42 -0.06,-0.55 -0.17,-0.14 -0.42,-0.11 -0.55,0.06 -0.09,0.12 -32.82,40.21 -35.66,49.83 -0.06,0.21 0.06,0.43 0.27,0.49 0.21,0.06 0.43,-0.06 0.49,-0.27 2.79,-9.47 35.42,-49.44 35.51,-49.56z"/>
   <path class="fil23" d="M69.19 39.97c0.2,-0.08 0.31,-0.3 0.23,-0.51 -0.08,-0.2 -0.3,-0.31 -0.51,-0.23 -0.01,0.01 -4.79,1.78 -7.44,2.24 -0.21,0.04 -0.36,0.24 -0.32,0.46 0.04,0.21 0.24,0.36 0.46,0.32 2.71,-0.47 7.56,-2.27 7.57,-2.28z"/>
   <path class="fil23" d="M57.07 47.22c0.07,0.21 0.29,0.32 0.5,0.25 0.21,-0.07 0.32,-0.29 0.25,-0.5 -0.01,-0.02 -1.77,-5.4 -1.46,-8.32 0.02,-0.22 -0.14,-0.41 -0.35,-0.43 -0.22,-0.02 -0.41,0.14 -0.43,0.35 -0.32,3.09 1.49,8.63 1.5,8.65z"/>
   <path class="fil23" d="M62.25 51.27c0.22,-0.03 0.36,-0.23 0.33,-0.45 -0.03,-0.22 -0.23,-0.36 -0.45,-0.33 -0.01,0 -5.16,0.75 -8.1,0.66 -0.22,-0.01 -0.4,0.16 -0.41,0.38 -0.01,0.22 0.16,0.4 0.38,0.41 3.02,0.09 8.23,-0.67 8.25,-0.67z"/>
   <path class="fil23" d="M50.07 56.37c0.06,0.21 0.28,0.33 0.49,0.27 0.21,-0.06 0.33,-0.28 0.27,-0.49 -0.01,-0.02 -1.75,-5.89 -1.82,-8.56 -0.01,-0.22 -0.19,-0.39 -0.41,-0.38 -0.22,0.01 -0.39,0.19 -0.38,0.41 0.07,2.77 1.85,8.74 1.85,8.76z"/>
   <path class="fil23" d="M54.74 62.62c0.21,-0.05 0.35,-0.26 0.3,-0.47 -0.05,-0.21 -0.26,-0.35 -0.47,-0.3 -0.02,0 -6.47,1.4 -9.04,0.8 -0.21,-0.05 -0.43,0.08 -0.47,0.3 -0.05,0.21 0.08,0.43 0.3,0.47 2.74,0.64 9.37,-0.8 9.39,-0.8z"/>
   <path class="fil23" d="M57.21 67.63c0.22,-0.03 0.37,-0.23 0.33,-0.45 -0.03,-0.22 -0.23,-0.37 -0.45,-0.33 -0.03,0.01 -12.19,1.81 -15.24,1.02 -0.21,-0.05 -0.43,0.07 -0.48,0.28 -0.05,0.21 0.07,0.43 0.28,0.48 3.21,0.83 15.52,-1 15.56,-1z"/>
   <path class="fil23" d="M37.69 56.02c-0.04,-0.22 -0.24,-0.36 -0.46,-0.32 -0.22,0.04 -0.36,0.24 -0.32,0.46 0,0.02 1.4,8.48 4.54,12.35 0.14,0.17 0.39,0.2 0.56,0.06 0.17,-0.14 0.2,-0.39 0.06,-0.56 -3,-3.7 -4.37,-11.96 -4.37,-11.98z"/>
  </g>
  <g id="_1318308688128">
   <path class="fil24" d="M152.04 481.33c0,0 15.1,-1.15 17.32,-9.62 0,0 -1.44,-0.86 -3.24,-1 0,0 5.75,-3.41 5.11,-11.92 0,0 -7.19,0.69 -12.21,4.6 0,0 4.3,-8.39 4.41,-13.08 0,0 -2.38,-0.1 -3.34,1.02 0,0 0.41,-7.35 -3.32,-12.94 0,0 -5.13,6.62 -5.59,9.74 0,0 -1.33,-1.52 -2.46,-2.28 0,0 -2.08,7.63 -0.72,16.06 0,0 -1.55,2.86 -2.73,-10.03 -1.18,-12.89 -6.87,-13.73 -6.87,-13.73 0,0 -2.19,2.33 -2.59,5.46 0,0 -9.57,-9.51 -15.55,-10.17 0,0 -0.3,11.27 3.9,17.37 0,0 -4.09,-0.74 -7.25,0.11 0,0 2.86,8.52 9.92,11.12 7.06,2.6 7.98,6.26 7.7,6.91 -0.27,0.65 -9.02,-5.07 -14.62,-4.89 0,0 -0.09,2.14 1.04,2.84 0,0 -5.37,-1.05 -10.9,1.09 0,0 4.06,5.83 8.38,6.86 0,0 -1.66,1.31 -2.3,2.53 0,0 6.21,4.15 13.6,2.18 0,0 -7.34,6.3 -7.31,9.18 0,0 5.95,2.36 10.86,1.01 0,0 -0.49,1.67 -0.2,3.16 0,0 9.56,0.25 18.96,-11.58z"/>
   <g>
    <polygon class="fil21" points="121.89,435.65 157.84,491.01 158.4,490.65 122.45,435.28 "/>
    <path class="fil21" d="M168.49 461.72c-0.03,0.03 -9.48,11.16 -18.4,16.74l0.35 0.57c9,-5.64 18.53,-16.85 18.56,-16.88l-0.51 -0.43z"/>
    <path class="fil21" d="M156.09 441.67c-0.01,0.08 -4.81,28.19 -4.63,36.09l0.67 -0.01c-0.18,-7.84 4.61,-35.88 4.62,-35.96l-0.66 -0.11z"/>
    <path class="fil21" d="M158.6 449.47c-0.01,0.01 -2.92,4.13 -4.49,5.24l0.38 0.55c1.67,-1.17 4.65,-5.39 4.66,-5.4l-0.55 -0.39z"/>
    <path class="fil21" d="M150.79 450.42c0,0.02 1.26,6.19 2.71,8.27l0.55 -0.38c-1.37,-1.96 -2.6,-8 -2.61,-8.02l-0.66 0.13z"/>
    <path class="fil21" d="M126.65 487.51c0.05,-0.02 18.62,-5.34 23.79,-8.47l-0.35 -0.57c-5.1,3.09 -23.58,8.39 -23.63,8.4l0.18 0.64z"/>
    <path class="fil21" d="M147.59 479.81c-0.09,-0.03 -30.2,-9.81 -34.54,-11.3l-0.22 0.63c4.33,1.49 34.47,11.28 34.55,11.3l0.21 -0.64z"/>
    <path class="fil21" d="M124.39 468.47c0.01,0.01 2.97,3.71 4.56,5.91l0.54 -0.39c-1.6,-2.22 -4.57,-5.93 -4.58,-5.94l-0.52 0.42z"/>
    <path class="fil21" d="M121.14 454.15c0.03,0.02 12.01,6.24 17.41,6.95l0.09 -0.67c-5.29,-0.69 -17.16,-6.86 -17.19,-6.88l-0.31 0.59z"/>
    <path class="fil21" d="M139.01 443.72c0,0.03 0.2,12.05 -0.75,16.98l0.66 0.12c0.96,-5 0.76,-17.08 0.76,-17.12l-0.67 0.01z"/>
   </g>
  </g>
  <g id="_1318308693696">
   <path class="fil22" d="M229.18 472.41c0,0 5.01,5 13.37,1.49 8.36,-3.51 10.57,-5.91 9.9,-8.04 -0.66,-2.13 -6.8,-2.38 -6.8,-2.38 0,0 15.84,-6.25 14.78,-24.02 0,0 -15.17,-0.66 -24.3,14.83 0,0 -0.65,-5.67 -3.87,-5.28 -3.22,0.39 -11.8,16.78 -3.1,23.41z"/>
   <path class="fil23" d="M259.07 441.56c0.13,-0.13 0.14,-0.34 0.01,-0.48 -0.13,-0.13 -0.34,-0.14 -0.48,-0.01 -0.09,0.09 -32.15,31.01 -35.56,38.95 -0.07,0.17 0.01,0.37 0.18,0.45 0.17,0.07 0.37,-0.01 0.45,-0.18 3.35,-7.81 35.31,-38.64 35.41,-38.73z"/>
   <path class="fil23" d="M257.63 448.28c0.18,-0.04 0.29,-0.23 0.25,-0.41 -0.04,-0.18 -0.23,-0.29 -0.41,-0.25 -0.01,0 -4.27,1.03 -6.58,1.15 -0.19,0.01 -0.33,0.17 -0.32,0.36 0.01,0.19 0.17,0.33 0.36,0.32 2.37,-0.12 6.69,-1.17 6.7,-1.17z"/>
   <path class="fil23" d="M246.53 453.24c0.04,0.18 0.22,0.3 0.4,0.27 0.18,-0.04 0.3,-0.22 0.27,-0.4 -0,-0.01 -0.96,-4.8 -0.4,-7.26 0.04,-0.18 -0.07,-0.36 -0.26,-0.41 -0.18,-0.04 -0.36,0.07 -0.41,0.26 -0.59,2.61 0.39,7.53 0.4,7.54z"/>
   <path class="fil23" d="M250.55 457.23c0.19,-0.01 0.34,-0.16 0.33,-0.35 -0.01,-0.19 -0.16,-0.34 -0.35,-0.33 -0.01,0 -4.49,0.12 -6.99,-0.26 -0.19,-0.03 -0.36,0.1 -0.39,0.28 -0.03,0.19 0.1,0.36 0.28,0.39 2.57,0.39 7.1,0.27 7.11,0.27z"/>
   <path class="fil23" d="M239.62 460.34c0.03,0.18 0.21,0.31 0.39,0.28 0.18,-0.03 0.31,-0.21 0.28,-0.39 -0,-0.01 -0.89,-5.21 -0.68,-7.5 0.02,-0.19 -0.12,-0.35 -0.31,-0.37 -0.19,-0.02 -0.35,0.12 -0.37,0.31 -0.22,2.37 0.69,7.66 0.69,7.67z"/>
   <path class="fil23" d="M242.97 466.16c0.19,-0.02 0.32,-0.18 0.31,-0.37 -0.02,-0.19 -0.18,-0.32 -0.37,-0.31 -0.02,0 -5.67,0.54 -7.81,-0.24 -0.18,-0.06 -0.37,0.03 -0.44,0.2 -0.06,0.18 0.03,0.37 0.2,0.44 2.28,0.83 8.09,0.27 8.1,0.27z"/>
   <path class="fil23" d="M244.57 470.69c0.19,-0.01 0.34,-0.16 0.33,-0.35 -0.01,-0.19 -0.16,-0.34 -0.35,-0.33 -0.03,0 -10.6,0.3 -13.13,-0.68 -0.17,-0.07 -0.37,0.02 -0.44,0.19 -0.07,0.17 0.02,0.37 0.19,0.44 2.66,1.04 13.37,0.73 13.4,0.73z"/>
   <path class="fil23" d="M229.07 458.78c-0.01,-0.19 -0.17,-0.33 -0.36,-0.32 -0.19,0.01 -0.33,0.17 -0.32,0.36 0,0.02 0.33,7.39 2.62,11.02 0.1,0.16 0.31,0.21 0.47,0.11 0.16,-0.1 0.21,-0.31 0.11,-0.47 -2.19,-3.47 -2.51,-10.67 -2.52,-10.69z"/>
  </g>
 </g>
</svg>
